%TF.GenerationSoftware,KiCad,Pcbnew,(5.0.1-3-g963ef8bb5)*%
%TF.CreationDate,2018-12-14T10:53:23-08:00*%
%TF.ProjectId,bb1,6262312E6B696361645F706362000000,rev?*%
%TF.SameCoordinates,Original*%
%TF.FileFunction,Legend,Bot*%
%TF.FilePolarity,Positive*%
%FSLAX46Y46*%
G04 Gerber Fmt 4.6, Leading zero omitted, Abs format (unit mm)*
G04 Created by KiCad (PCBNEW (5.0.1-3-g963ef8bb5)) date Friday, December 14, 2018 at 10:53:23 AM*
%MOMM*%
%LPD*%
G01*
G04 APERTURE LIST*
%ADD10C,0.300000*%
%ADD11C,0.150000*%
G04 APERTURE END LIST*
D10*
X164938928Y-34653571D02*
X164751428Y-33153571D01*
X164822857Y-33725000D02*
X164671071Y-33653571D01*
X164385357Y-33653571D01*
X164251428Y-33725000D01*
X164188928Y-33796428D01*
X164135357Y-33939285D01*
X164188928Y-34367857D01*
X164278214Y-34510714D01*
X164358571Y-34582142D01*
X164510357Y-34653571D01*
X164796071Y-34653571D01*
X164930000Y-34582142D01*
X163581785Y-34653571D02*
X163394285Y-33153571D01*
X163465714Y-33725000D02*
X163313928Y-33653571D01*
X163028214Y-33653571D01*
X162894285Y-33725000D01*
X162831785Y-33796428D01*
X162778214Y-33939285D01*
X162831785Y-34367857D01*
X162921071Y-34510714D01*
X163001428Y-34582142D01*
X163153214Y-34653571D01*
X163438928Y-34653571D01*
X163572857Y-34582142D01*
X161438928Y-34653571D02*
X162296071Y-34653571D01*
X161867500Y-34653571D02*
X161680000Y-33153571D01*
X161849642Y-33367857D01*
X162010357Y-33510714D01*
X162162142Y-33582142D01*
X164840714Y-35846428D02*
X164760357Y-35775000D01*
X164608571Y-35703571D01*
X164251428Y-35703571D01*
X164117500Y-35775000D01*
X164055000Y-35846428D01*
X164001428Y-35989285D01*
X164019285Y-36132142D01*
X164117500Y-36346428D01*
X165081785Y-37203571D01*
X164153214Y-37203571D01*
X163037142Y-35703571D02*
X162894285Y-35703571D01*
X162760357Y-35775000D01*
X162697857Y-35846428D01*
X162644285Y-35989285D01*
X162608571Y-36275000D01*
X162653214Y-36632142D01*
X162760357Y-36917857D01*
X162849642Y-37060714D01*
X162930000Y-37132142D01*
X163081785Y-37203571D01*
X163224642Y-37203571D01*
X163358571Y-37132142D01*
X163421071Y-37060714D01*
X163474642Y-36917857D01*
X163510357Y-36632142D01*
X163465714Y-36275000D01*
X163358571Y-35989285D01*
X163269285Y-35846428D01*
X163188928Y-35775000D01*
X163037142Y-35703571D01*
X161296071Y-37203571D02*
X162153214Y-37203571D01*
X161724642Y-37203571D02*
X161537142Y-35703571D01*
X161706785Y-35917857D01*
X161867500Y-36060714D01*
X162019285Y-36132142D01*
X160331785Y-36346428D02*
X160465714Y-36275000D01*
X160528214Y-36203571D01*
X160581785Y-36060714D01*
X160572857Y-35989285D01*
X160483571Y-35846428D01*
X160403214Y-35775000D01*
X160251428Y-35703571D01*
X159965714Y-35703571D01*
X159831785Y-35775000D01*
X159769285Y-35846428D01*
X159715714Y-35989285D01*
X159724642Y-36060714D01*
X159813928Y-36203571D01*
X159894285Y-36275000D01*
X160046071Y-36346428D01*
X160331785Y-36346428D01*
X160483571Y-36417857D01*
X160563928Y-36489285D01*
X160653214Y-36632142D01*
X160688928Y-36917857D01*
X160635357Y-37060714D01*
X160572857Y-37132142D01*
X160438928Y-37203571D01*
X160153214Y-37203571D01*
X160001428Y-37132142D01*
X159921071Y-37060714D01*
X159831785Y-36917857D01*
X159796071Y-36632142D01*
X159849642Y-36489285D01*
X159912142Y-36417857D01*
X160046071Y-36346428D01*
X159153214Y-36632142D02*
X158010357Y-36632142D01*
X156581785Y-37203571D02*
X157438928Y-37203571D01*
X157010357Y-37203571D02*
X156822857Y-35703571D01*
X156992500Y-35917857D01*
X157153214Y-36060714D01*
X157305000Y-36132142D01*
X155840714Y-35846428D02*
X155760357Y-35775000D01*
X155608571Y-35703571D01*
X155251428Y-35703571D01*
X155117500Y-35775000D01*
X155055000Y-35846428D01*
X155001428Y-35989285D01*
X155019285Y-36132142D01*
X155117500Y-36346428D01*
X156081785Y-37203571D01*
X155153214Y-37203571D01*
X154438928Y-36632142D02*
X153296071Y-36632142D01*
X151867500Y-37203571D02*
X152724642Y-37203571D01*
X152296071Y-37203571D02*
X152108571Y-35703571D01*
X152278214Y-35917857D01*
X152438928Y-36060714D01*
X152590714Y-36132142D01*
X150456785Y-36203571D02*
X150581785Y-37203571D01*
X150742500Y-35632142D02*
X151233571Y-36703571D01*
X150305000Y-36703571D01*
D11*
X266906250Y-31687500D02*
X88968750Y-31687500D01*
X283968750Y-31687500D02*
X266906250Y-31687500D01*
X303468750Y-34125000D02*
X286406250Y-34125000D01*
X304687500Y-35343750D02*
X304687500Y-37781250D01*
X343687500Y-137718750D02*
X343687500Y-42656250D01*
X325406250Y-138937500D02*
X342468750Y-138937500D01*
X305906250Y-136500000D02*
X322968750Y-136500000D01*
X304687500Y-132843750D02*
X304687500Y-135281250D01*
X286406250Y-131625000D02*
X303468750Y-131625000D01*
X266906250Y-129187500D02*
X283968750Y-129187500D01*
X247406250Y-131625000D02*
X264468750Y-131625000D01*
X246187500Y-132843750D02*
X246187500Y-135281250D01*
X227906250Y-136500000D02*
X244968750Y-136500000D01*
X208406250Y-138937500D02*
X225468750Y-138937500D01*
X188906250Y-141375000D02*
X205968750Y-141375000D01*
X169406250Y-143812500D02*
X186468750Y-143812500D01*
X149906250Y-141375000D02*
X166968750Y-141375000D01*
X130406250Y-138937500D02*
X147468750Y-138937500D01*
X127968750Y-136500000D02*
G75*
G02X129187500Y-137718750I0J-1218750D01*
G01*
X110906250Y-136500000D02*
X127968750Y-136500000D01*
X109687500Y-132843750D02*
X109687500Y-135281250D01*
X91406250Y-131625000D02*
X108468750Y-131625000D01*
X71906250Y-129187500D02*
X88968750Y-129187500D01*
X52406250Y-131625000D02*
X69468750Y-131625000D01*
X32906250Y-134062500D02*
X49968750Y-134062500D01*
X31687500Y-135281250D02*
X31687500Y-137718750D01*
X13406250Y-138937500D02*
X30468750Y-138937500D01*
X12187500Y-42656250D02*
X12187500Y-137718750D01*
X52406250Y-34125000D02*
X69468750Y-34125000D01*
X32906250Y-36562500D02*
X49968750Y-36562500D01*
X31687500Y-37781250D02*
X31687500Y-40218750D01*
X13406250Y-41437500D02*
X30468750Y-41437500D01*
X12187500Y-42656250D02*
G75*
G02X13406250Y-41437500I1218750J0D01*
G01*
X31687500Y-40218750D02*
G75*
G02X30468750Y-41437500I-1218750J0D01*
G01*
X31687500Y-37781250D02*
G75*
G02X32906250Y-36562500I1218750J0D01*
G01*
X51187500Y-35343750D02*
G75*
G02X49968750Y-36562500I-1218750J0D01*
G01*
X51187500Y-35343750D02*
G75*
G02X52406250Y-34125000I1218750J0D01*
G01*
X70687500Y-32906250D02*
G75*
G02X69468750Y-34125000I-1218750J0D01*
G01*
X70687500Y-32906250D02*
G75*
G02X71906250Y-31687500I1218750J0D01*
G01*
X88968750Y-31687500D02*
X71906250Y-31687500D01*
X343687500Y-137718750D02*
G75*
G02X342468750Y-138937500I-1218750J0D01*
G01*
X325406250Y-138937500D02*
G75*
G02X324187500Y-137718750I0J1218750D01*
G01*
X322968750Y-136500000D02*
G75*
G02X324187500Y-137718750I0J-1218750D01*
G01*
X305906250Y-136500000D02*
G75*
G02X304687500Y-135281250I0J1218750D01*
G01*
X303468750Y-131625000D02*
G75*
G02X304687500Y-132843750I0J-1218750D01*
G01*
X286406250Y-131625000D02*
G75*
G02X285187500Y-130406250I0J1218750D01*
G01*
X283968750Y-129187500D02*
G75*
G02X285187500Y-130406250I0J-1218750D01*
G01*
X265687500Y-130406250D02*
G75*
G02X266906250Y-129187500I1218750J0D01*
G01*
X265687500Y-130406250D02*
G75*
G02X264468750Y-131625000I-1218750J0D01*
G01*
X246187500Y-132843750D02*
G75*
G02X247406250Y-131625000I1218750J0D01*
G01*
X246187500Y-135281250D02*
G75*
G02X244968750Y-136500000I-1218750J0D01*
G01*
X226687500Y-137718750D02*
G75*
G02X227906250Y-136500000I1218750J0D01*
G01*
X226687500Y-137718750D02*
G75*
G02X225468750Y-138937500I-1218750J0D01*
G01*
X207187500Y-140156250D02*
G75*
G02X208406250Y-138937500I1218750J0D01*
G01*
X207187500Y-140156250D02*
G75*
G02X205968750Y-141375000I-1218750J0D01*
G01*
X187687500Y-142593750D02*
G75*
G02X188906250Y-141375000I1218750J0D01*
G01*
X187687500Y-142593750D02*
G75*
G02X186468750Y-143812500I-1218750J0D01*
G01*
X166968750Y-141375000D02*
G75*
G02X168187500Y-142593750I0J-1218750D01*
G01*
X147468750Y-138937500D02*
G75*
G02X148687500Y-140156250I0J-1218750D01*
G01*
X108468750Y-131625000D02*
G75*
G02X109687500Y-132843750I0J-1218750D01*
G01*
X88968750Y-129187500D02*
G75*
G02X90187500Y-130406250I0J-1218750D01*
G01*
X70687500Y-130406250D02*
G75*
G02X71906250Y-129187500I1218750J0D01*
G01*
X51187500Y-132843750D02*
G75*
G02X52406250Y-131625000I1218750J0D01*
G01*
X31687500Y-135281250D02*
G75*
G02X32906250Y-134062500I1218750J0D01*
G01*
X31687500Y-137718750D02*
G75*
G02X30468750Y-138937500I-1218750J0D01*
G01*
X70687500Y-130406250D02*
G75*
G02X69468750Y-131625000I-1218750J0D01*
G01*
X51187500Y-132843750D02*
G75*
G02X49968750Y-134062500I-1218750J0D01*
G01*
X91406250Y-131625000D02*
G75*
G02X90187500Y-130406250I0J1218750D01*
G01*
X110906250Y-136500000D02*
G75*
G02X109687500Y-135281250I0J1218750D01*
G01*
X13406250Y-138937500D02*
G75*
G02X12187500Y-137718750I0J1218750D01*
G01*
X130406250Y-138937500D02*
G75*
G02X129187500Y-137718750I0J1218750D01*
G01*
X149906250Y-141375000D02*
G75*
G02X148687500Y-140156250I0J1218750D01*
G01*
X169406250Y-143812500D02*
G75*
G02X168187500Y-142593750I0J1218750D01*
G01*
X286406250Y-34125000D02*
G75*
G02X285187500Y-32906250I0J1218750D01*
G01*
X305906250Y-39000000D02*
G75*
G02X304687500Y-37781250I0J1218750D01*
G01*
X283968750Y-31687500D02*
G75*
G02X285187500Y-32906250I0J-1218750D01*
G01*
X303468750Y-34125000D02*
G75*
G02X304687500Y-35343750I0J-1218750D01*
G01*
X325406250Y-41437500D02*
G75*
G02X324187500Y-40218750I0J1218750D01*
G01*
X322968750Y-39000000D02*
G75*
G02X324187500Y-40218750I0J-1218750D01*
G01*
X305906250Y-39000000D02*
X322968750Y-39000000D01*
X342468750Y-41437500D02*
G75*
G02X343687500Y-42656250I0J-1218750D01*
G01*
X325406250Y-41437500D02*
X342468750Y-41437500D01*
X321437500Y-61250000D02*
X321437500Y-62250000D01*
X320437500Y-61250000D02*
X321437500Y-61250000D01*
X321437500Y-75250000D02*
X320437500Y-75250000D01*
X307437500Y-75250000D02*
X307437500Y-74250000D01*
X308437500Y-75250000D02*
X307437500Y-75250000D01*
X307437500Y-61250000D02*
X308437500Y-61250000D01*
X307437500Y-62250000D02*
X307437500Y-61250000D01*
X321437500Y-74250000D02*
X321437500Y-75250000D01*
X28937500Y-44187500D02*
X28937500Y-45187500D01*
X27937500Y-44187500D02*
X28937500Y-44187500D01*
X28937500Y-58187500D02*
X27937500Y-58187500D01*
X14937500Y-58187500D02*
X14937500Y-57187500D01*
X15937500Y-58187500D02*
X14937500Y-58187500D01*
X14937500Y-44187500D02*
X15937500Y-44187500D01*
X14937500Y-45187500D02*
X14937500Y-44187500D01*
X28937500Y-57187500D02*
X28937500Y-58187500D01*
X28937500Y-63687500D02*
X28937500Y-64687500D01*
X27937500Y-63687500D02*
X28937500Y-63687500D01*
X28937500Y-77687500D02*
X27937500Y-77687500D01*
X14937500Y-77687500D02*
X14937500Y-76687500D01*
X15937500Y-77687500D02*
X14937500Y-77687500D01*
X14937500Y-63687500D02*
X15937500Y-63687500D01*
X14937500Y-64687500D02*
X14937500Y-63687500D01*
X28937500Y-76687500D02*
X28937500Y-77687500D01*
X28937500Y-83187500D02*
X28937500Y-84187500D01*
X27937500Y-83187500D02*
X28937500Y-83187500D01*
X28937500Y-97187500D02*
X27937500Y-97187500D01*
X14937500Y-97187500D02*
X14937500Y-96187500D01*
X15937500Y-97187500D02*
X14937500Y-97187500D01*
X14937500Y-83187500D02*
X15937500Y-83187500D01*
X14937500Y-84187500D02*
X14937500Y-83187500D01*
X28937500Y-96187500D02*
X28937500Y-97187500D01*
X28937500Y-102687500D02*
X28937500Y-103687500D01*
X27937500Y-102687500D02*
X28937500Y-102687500D01*
X28937500Y-116687500D02*
X27937500Y-116687500D01*
X14937500Y-116687500D02*
X14937500Y-115687500D01*
X15937500Y-116687500D02*
X14937500Y-116687500D01*
X14937500Y-102687500D02*
X15937500Y-102687500D01*
X14937500Y-103687500D02*
X14937500Y-102687500D01*
X28937500Y-115687500D02*
X28937500Y-116687500D01*
X28937500Y-122187500D02*
X28937500Y-123187500D01*
X27937500Y-122187500D02*
X28937500Y-122187500D01*
X28937500Y-136187500D02*
X27937500Y-136187500D01*
X14937500Y-136187500D02*
X14937500Y-135187500D01*
X15937500Y-136187500D02*
X14937500Y-136187500D01*
X14937500Y-122187500D02*
X15937500Y-122187500D01*
X14937500Y-123187500D02*
X14937500Y-122187500D01*
X28937500Y-135187500D02*
X28937500Y-136187500D01*
X48437500Y-39312500D02*
X48437500Y-40312500D01*
X47437500Y-39312500D02*
X48437500Y-39312500D01*
X48437500Y-53312500D02*
X47437500Y-53312500D01*
X34437500Y-53312500D02*
X34437500Y-52312500D01*
X35437500Y-53312500D02*
X34437500Y-53312500D01*
X34437500Y-39312500D02*
X35437500Y-39312500D01*
X34437500Y-40312500D02*
X34437500Y-39312500D01*
X48437500Y-52312500D02*
X48437500Y-53312500D01*
X48437500Y-58812500D02*
X48437500Y-59812500D01*
X47437500Y-58812500D02*
X48437500Y-58812500D01*
X48437500Y-72812500D02*
X47437500Y-72812500D01*
X34437500Y-72812500D02*
X34437500Y-71812500D01*
X35437500Y-72812500D02*
X34437500Y-72812500D01*
X34437500Y-58812500D02*
X35437500Y-58812500D01*
X34437500Y-59812500D02*
X34437500Y-58812500D01*
X48437500Y-71812500D02*
X48437500Y-72812500D01*
X48437500Y-78312500D02*
X48437500Y-79312500D01*
X47437500Y-78312500D02*
X48437500Y-78312500D01*
X48437500Y-92312500D02*
X47437500Y-92312500D01*
X34437500Y-92312500D02*
X34437500Y-91312500D01*
X35437500Y-92312500D02*
X34437500Y-92312500D01*
X34437500Y-78312500D02*
X35437500Y-78312500D01*
X34437500Y-79312500D02*
X34437500Y-78312500D01*
X48437500Y-91312500D02*
X48437500Y-92312500D01*
X48437500Y-97812500D02*
X48437500Y-98812500D01*
X47437500Y-97812500D02*
X48437500Y-97812500D01*
X48437500Y-111812500D02*
X47437500Y-111812500D01*
X34437500Y-111812500D02*
X34437500Y-110812500D01*
X35437500Y-111812500D02*
X34437500Y-111812500D01*
X34437500Y-97812500D02*
X35437500Y-97812500D01*
X34437500Y-98812500D02*
X34437500Y-97812500D01*
X48437500Y-110812500D02*
X48437500Y-111812500D01*
X48437500Y-117312500D02*
X48437500Y-118312500D01*
X47437500Y-117312500D02*
X48437500Y-117312500D01*
X48437500Y-131312500D02*
X47437500Y-131312500D01*
X34437500Y-131312500D02*
X34437500Y-130312500D01*
X35437500Y-131312500D02*
X34437500Y-131312500D01*
X34437500Y-117312500D02*
X35437500Y-117312500D01*
X34437500Y-118312500D02*
X34437500Y-117312500D01*
X48437500Y-130312500D02*
X48437500Y-131312500D01*
X67937500Y-36875000D02*
X67937500Y-37875000D01*
X66937500Y-36875000D02*
X67937500Y-36875000D01*
X67937500Y-50875000D02*
X66937500Y-50875000D01*
X53937500Y-50875000D02*
X53937500Y-49875000D01*
X54937500Y-50875000D02*
X53937500Y-50875000D01*
X53937500Y-36875000D02*
X54937500Y-36875000D01*
X53937500Y-37875000D02*
X53937500Y-36875000D01*
X67937500Y-49875000D02*
X67937500Y-50875000D01*
X67937500Y-56375000D02*
X67937500Y-57375000D01*
X66937500Y-56375000D02*
X67937500Y-56375000D01*
X67937500Y-70375000D02*
X66937500Y-70375000D01*
X53937500Y-70375000D02*
X53937500Y-69375000D01*
X54937500Y-70375000D02*
X53937500Y-70375000D01*
X53937500Y-56375000D02*
X54937500Y-56375000D01*
X53937500Y-57375000D02*
X53937500Y-56375000D01*
X67937500Y-69375000D02*
X67937500Y-70375000D01*
X67937500Y-75875000D02*
X67937500Y-76875000D01*
X66937500Y-75875000D02*
X67937500Y-75875000D01*
X67937500Y-89875000D02*
X66937500Y-89875000D01*
X53937500Y-89875000D02*
X53937500Y-88875000D01*
X54937500Y-89875000D02*
X53937500Y-89875000D01*
X53937500Y-75875000D02*
X54937500Y-75875000D01*
X53937500Y-76875000D02*
X53937500Y-75875000D01*
X67937500Y-88875000D02*
X67937500Y-89875000D01*
X67937500Y-95375000D02*
X67937500Y-96375000D01*
X66937500Y-95375000D02*
X67937500Y-95375000D01*
X67937500Y-109375000D02*
X66937500Y-109375000D01*
X53937500Y-109375000D02*
X53937500Y-108375000D01*
X54937500Y-109375000D02*
X53937500Y-109375000D01*
X53937500Y-95375000D02*
X54937500Y-95375000D01*
X53937500Y-96375000D02*
X53937500Y-95375000D01*
X67937500Y-108375000D02*
X67937500Y-109375000D01*
X67937500Y-114875000D02*
X67937500Y-115875000D01*
X66937500Y-114875000D02*
X67937500Y-114875000D01*
X67937500Y-128875000D02*
X66937500Y-128875000D01*
X53937500Y-128875000D02*
X53937500Y-127875000D01*
X54937500Y-128875000D02*
X53937500Y-128875000D01*
X53937500Y-114875000D02*
X54937500Y-114875000D01*
X53937500Y-115875000D02*
X53937500Y-114875000D01*
X67937500Y-127875000D02*
X67937500Y-128875000D01*
X87437500Y-34437500D02*
X87437500Y-35437500D01*
X86437500Y-34437500D02*
X87437500Y-34437500D01*
X87437500Y-48437500D02*
X86437500Y-48437500D01*
X73437500Y-48437500D02*
X73437500Y-47437500D01*
X74437500Y-48437500D02*
X73437500Y-48437500D01*
X73437500Y-34437500D02*
X74437500Y-34437500D01*
X73437500Y-35437500D02*
X73437500Y-34437500D01*
X87437500Y-47437500D02*
X87437500Y-48437500D01*
X87437500Y-53937500D02*
X87437500Y-54937500D01*
X86437500Y-53937500D02*
X87437500Y-53937500D01*
X87437500Y-67937500D02*
X86437500Y-67937500D01*
X73437500Y-67937500D02*
X73437500Y-66937500D01*
X74437500Y-67937500D02*
X73437500Y-67937500D01*
X73437500Y-53937500D02*
X74437500Y-53937500D01*
X73437500Y-54937500D02*
X73437500Y-53937500D01*
X87437500Y-66937500D02*
X87437500Y-67937500D01*
X87437500Y-73437500D02*
X87437500Y-74437500D01*
X86437500Y-73437500D02*
X87437500Y-73437500D01*
X87437500Y-87437500D02*
X86437500Y-87437500D01*
X73437500Y-87437500D02*
X73437500Y-86437500D01*
X74437500Y-87437500D02*
X73437500Y-87437500D01*
X73437500Y-73437500D02*
X74437500Y-73437500D01*
X73437500Y-74437500D02*
X73437500Y-73437500D01*
X87437500Y-86437500D02*
X87437500Y-87437500D01*
X87437500Y-92937500D02*
X87437500Y-93937500D01*
X86437500Y-92937500D02*
X87437500Y-92937500D01*
X87437500Y-106937500D02*
X86437500Y-106937500D01*
X73437500Y-106937500D02*
X73437500Y-105937500D01*
X74437500Y-106937500D02*
X73437500Y-106937500D01*
X73437500Y-92937500D02*
X74437500Y-92937500D01*
X73437500Y-93937500D02*
X73437500Y-92937500D01*
X87437500Y-105937500D02*
X87437500Y-106937500D01*
X87437500Y-112437500D02*
X87437500Y-113437500D01*
X86437500Y-112437500D02*
X87437500Y-112437500D01*
X87437500Y-126437500D02*
X86437500Y-126437500D01*
X73437500Y-126437500D02*
X73437500Y-125437500D01*
X74437500Y-126437500D02*
X73437500Y-126437500D01*
X73437500Y-112437500D02*
X74437500Y-112437500D01*
X73437500Y-113437500D02*
X73437500Y-112437500D01*
X87437500Y-125437500D02*
X87437500Y-126437500D01*
X106937500Y-36875000D02*
X106937500Y-37875000D01*
X105937500Y-36875000D02*
X106937500Y-36875000D01*
X106937500Y-50875000D02*
X105937500Y-50875000D01*
X92937500Y-50875000D02*
X92937500Y-49875000D01*
X93937500Y-50875000D02*
X92937500Y-50875000D01*
X92937500Y-36875000D02*
X93937500Y-36875000D01*
X92937500Y-37875000D02*
X92937500Y-36875000D01*
X106937500Y-49875000D02*
X106937500Y-50875000D01*
X106937500Y-56375000D02*
X106937500Y-57375000D01*
X105937500Y-56375000D02*
X106937500Y-56375000D01*
X106937500Y-70375000D02*
X105937500Y-70375000D01*
X92937500Y-70375000D02*
X92937500Y-69375000D01*
X93937500Y-70375000D02*
X92937500Y-70375000D01*
X92937500Y-56375000D02*
X93937500Y-56375000D01*
X92937500Y-57375000D02*
X92937500Y-56375000D01*
X106937500Y-69375000D02*
X106937500Y-70375000D01*
X106937500Y-75875000D02*
X106937500Y-76875000D01*
X105937500Y-75875000D02*
X106937500Y-75875000D01*
X106937500Y-89875000D02*
X105937500Y-89875000D01*
X92937500Y-89875000D02*
X92937500Y-88875000D01*
X93937500Y-89875000D02*
X92937500Y-89875000D01*
X92937500Y-75875000D02*
X93937500Y-75875000D01*
X92937500Y-76875000D02*
X92937500Y-75875000D01*
X106937500Y-88875000D02*
X106937500Y-89875000D01*
X106937500Y-95375000D02*
X106937500Y-96375000D01*
X105937500Y-95375000D02*
X106937500Y-95375000D01*
X106937500Y-109375000D02*
X105937500Y-109375000D01*
X92937500Y-109375000D02*
X92937500Y-108375000D01*
X93937500Y-109375000D02*
X92937500Y-109375000D01*
X92937500Y-95375000D02*
X93937500Y-95375000D01*
X92937500Y-96375000D02*
X92937500Y-95375000D01*
X106937500Y-108375000D02*
X106937500Y-109375000D01*
X106937500Y-114875000D02*
X106937500Y-115875000D01*
X105937500Y-114875000D02*
X106937500Y-114875000D01*
X106937500Y-128875000D02*
X105937500Y-128875000D01*
X92937500Y-128875000D02*
X92937500Y-127875000D01*
X93937500Y-128875000D02*
X92937500Y-128875000D01*
X92937500Y-114875000D02*
X93937500Y-114875000D01*
X92937500Y-115875000D02*
X92937500Y-114875000D01*
X106937500Y-127875000D02*
X106937500Y-128875000D01*
X126437500Y-41750000D02*
X126437500Y-42750000D01*
X125437500Y-41750000D02*
X126437500Y-41750000D01*
X126437500Y-55750000D02*
X125437500Y-55750000D01*
X112437500Y-55750000D02*
X112437500Y-54750000D01*
X113437500Y-55750000D02*
X112437500Y-55750000D01*
X112437500Y-41750000D02*
X113437500Y-41750000D01*
X112437500Y-42750000D02*
X112437500Y-41750000D01*
X126437500Y-54750000D02*
X126437500Y-55750000D01*
X126437500Y-61250000D02*
X126437500Y-62250000D01*
X125437500Y-61250000D02*
X126437500Y-61250000D01*
X126437500Y-75250000D02*
X125437500Y-75250000D01*
X112437500Y-75250000D02*
X112437500Y-74250000D01*
X113437500Y-75250000D02*
X112437500Y-75250000D01*
X112437500Y-61250000D02*
X113437500Y-61250000D01*
X112437500Y-62250000D02*
X112437500Y-61250000D01*
X126437500Y-74250000D02*
X126437500Y-75250000D01*
X126437500Y-80750000D02*
X126437500Y-81750000D01*
X125437500Y-80750000D02*
X126437500Y-80750000D01*
X126437500Y-94750000D02*
X125437500Y-94750000D01*
X112437500Y-94750000D02*
X112437500Y-93750000D01*
X113437500Y-94750000D02*
X112437500Y-94750000D01*
X112437500Y-80750000D02*
X113437500Y-80750000D01*
X112437500Y-81750000D02*
X112437500Y-80750000D01*
X126437500Y-93750000D02*
X126437500Y-94750000D01*
X126437500Y-100250000D02*
X126437500Y-101250000D01*
X125437500Y-100250000D02*
X126437500Y-100250000D01*
X126437500Y-114250000D02*
X125437500Y-114250000D01*
X112437500Y-114250000D02*
X112437500Y-113250000D01*
X113437500Y-114250000D02*
X112437500Y-114250000D01*
X112437500Y-100250000D02*
X113437500Y-100250000D01*
X112437500Y-101250000D02*
X112437500Y-100250000D01*
X126437500Y-113250000D02*
X126437500Y-114250000D01*
X126437500Y-119750000D02*
X126437500Y-120750000D01*
X125437500Y-119750000D02*
X126437500Y-119750000D01*
X126437500Y-133750000D02*
X125437500Y-133750000D01*
X112437500Y-133750000D02*
X112437500Y-132750000D01*
X113437500Y-133750000D02*
X112437500Y-133750000D01*
X112437500Y-119750000D02*
X113437500Y-119750000D01*
X112437500Y-120750000D02*
X112437500Y-119750000D01*
X126437500Y-132750000D02*
X126437500Y-133750000D01*
X145937500Y-102687500D02*
X145937500Y-103687500D01*
X144937500Y-102687500D02*
X145937500Y-102687500D01*
X145937500Y-116687500D02*
X144937500Y-116687500D01*
X131937500Y-116687500D02*
X131937500Y-115687500D01*
X132937500Y-116687500D02*
X131937500Y-116687500D01*
X131937500Y-102687500D02*
X132937500Y-102687500D01*
X131937500Y-103687500D02*
X131937500Y-102687500D01*
X145937500Y-115687500D02*
X145937500Y-116687500D01*
X145937500Y-122187500D02*
X145937500Y-123187500D01*
X144937500Y-122187500D02*
X145937500Y-122187500D01*
X145937500Y-136187500D02*
X144937500Y-136187500D01*
X131937500Y-136187500D02*
X131937500Y-135187500D01*
X132937500Y-136187500D02*
X131937500Y-136187500D01*
X131937500Y-122187500D02*
X132937500Y-122187500D01*
X131937500Y-123187500D02*
X131937500Y-122187500D01*
X145937500Y-135187500D02*
X145937500Y-136187500D01*
X165437500Y-105125000D02*
X165437500Y-106125000D01*
X164437500Y-105125000D02*
X165437500Y-105125000D01*
X165437500Y-119125000D02*
X164437500Y-119125000D01*
X151437500Y-119125000D02*
X151437500Y-118125000D01*
X152437500Y-119125000D02*
X151437500Y-119125000D01*
X151437500Y-105125000D02*
X152437500Y-105125000D01*
X151437500Y-106125000D02*
X151437500Y-105125000D01*
X165437500Y-118125000D02*
X165437500Y-119125000D01*
X165437500Y-124625000D02*
X165437500Y-125625000D01*
X164437500Y-124625000D02*
X165437500Y-124625000D01*
X165437500Y-138625000D02*
X164437500Y-138625000D01*
X151437500Y-138625000D02*
X151437500Y-137625000D01*
X152437500Y-138625000D02*
X151437500Y-138625000D01*
X151437500Y-124625000D02*
X152437500Y-124625000D01*
X151437500Y-125625000D02*
X151437500Y-124625000D01*
X165437500Y-137625000D02*
X165437500Y-138625000D01*
X184937500Y-107562500D02*
X184937500Y-108562500D01*
X183937500Y-107562500D02*
X184937500Y-107562500D01*
X184937500Y-121562500D02*
X183937500Y-121562500D01*
X170937500Y-121562500D02*
X170937500Y-120562500D01*
X171937500Y-121562500D02*
X170937500Y-121562500D01*
X170937500Y-107562500D02*
X171937500Y-107562500D01*
X170937500Y-108562500D02*
X170937500Y-107562500D01*
X184937500Y-120562500D02*
X184937500Y-121562500D01*
X184937500Y-127062500D02*
X184937500Y-128062500D01*
X183937500Y-127062500D02*
X184937500Y-127062500D01*
X184937500Y-141062500D02*
X183937500Y-141062500D01*
X170937500Y-141062500D02*
X170937500Y-140062500D01*
X171937500Y-141062500D02*
X170937500Y-141062500D01*
X170937500Y-127062500D02*
X171937500Y-127062500D01*
X170937500Y-128062500D02*
X170937500Y-127062500D01*
X184937500Y-140062500D02*
X184937500Y-141062500D01*
X204437500Y-105125000D02*
X204437500Y-106125000D01*
X203437500Y-105125000D02*
X204437500Y-105125000D01*
X204437500Y-119125000D02*
X203437500Y-119125000D01*
X190437500Y-119125000D02*
X190437500Y-118125000D01*
X191437500Y-119125000D02*
X190437500Y-119125000D01*
X190437500Y-105125000D02*
X191437500Y-105125000D01*
X190437500Y-106125000D02*
X190437500Y-105125000D01*
X204437500Y-118125000D02*
X204437500Y-119125000D01*
X204437500Y-124625000D02*
X204437500Y-125625000D01*
X203437500Y-124625000D02*
X204437500Y-124625000D01*
X204437500Y-138625000D02*
X203437500Y-138625000D01*
X190437500Y-138625000D02*
X190437500Y-137625000D01*
X191437500Y-138625000D02*
X190437500Y-138625000D01*
X190437500Y-124625000D02*
X191437500Y-124625000D01*
X190437500Y-125625000D02*
X190437500Y-124625000D01*
X204437500Y-137625000D02*
X204437500Y-138625000D01*
X223937500Y-102687500D02*
X223937500Y-103687500D01*
X222937500Y-102687500D02*
X223937500Y-102687500D01*
X223937500Y-116687500D02*
X222937500Y-116687500D01*
X209937500Y-116687500D02*
X209937500Y-115687500D01*
X210937500Y-116687500D02*
X209937500Y-116687500D01*
X209937500Y-102687500D02*
X210937500Y-102687500D01*
X209937500Y-103687500D02*
X209937500Y-102687500D01*
X223937500Y-115687500D02*
X223937500Y-116687500D01*
X223937500Y-122187500D02*
X223937500Y-123187500D01*
X222937500Y-122187500D02*
X223937500Y-122187500D01*
X223937500Y-136187500D02*
X222937500Y-136187500D01*
X209937500Y-136187500D02*
X209937500Y-135187500D01*
X210937500Y-136187500D02*
X209937500Y-136187500D01*
X209937500Y-122187500D02*
X210937500Y-122187500D01*
X209937500Y-123187500D02*
X209937500Y-122187500D01*
X223937500Y-135187500D02*
X223937500Y-136187500D01*
X243437500Y-41750000D02*
X243437500Y-42750000D01*
X242437500Y-41750000D02*
X243437500Y-41750000D01*
X243437500Y-55750000D02*
X242437500Y-55750000D01*
X229437500Y-55750000D02*
X229437500Y-54750000D01*
X230437500Y-55750000D02*
X229437500Y-55750000D01*
X229437500Y-41750000D02*
X230437500Y-41750000D01*
X229437500Y-42750000D02*
X229437500Y-41750000D01*
X243437500Y-54750000D02*
X243437500Y-55750000D01*
X243437500Y-61250000D02*
X243437500Y-62250000D01*
X242437500Y-61250000D02*
X243437500Y-61250000D01*
X243437500Y-75250000D02*
X242437500Y-75250000D01*
X229437500Y-75250000D02*
X229437500Y-74250000D01*
X230437500Y-75250000D02*
X229437500Y-75250000D01*
X229437500Y-61250000D02*
X230437500Y-61250000D01*
X229437500Y-62250000D02*
X229437500Y-61250000D01*
X243437500Y-74250000D02*
X243437500Y-75250000D01*
X243437500Y-80750000D02*
X243437500Y-81750000D01*
X242437500Y-80750000D02*
X243437500Y-80750000D01*
X243437500Y-94750000D02*
X242437500Y-94750000D01*
X229437500Y-94750000D02*
X229437500Y-93750000D01*
X230437500Y-94750000D02*
X229437500Y-94750000D01*
X229437500Y-80750000D02*
X230437500Y-80750000D01*
X229437500Y-81750000D02*
X229437500Y-80750000D01*
X243437500Y-93750000D02*
X243437500Y-94750000D01*
X243437500Y-100250000D02*
X243437500Y-101250000D01*
X242437500Y-100250000D02*
X243437500Y-100250000D01*
X243437500Y-114250000D02*
X242437500Y-114250000D01*
X229437500Y-114250000D02*
X229437500Y-113250000D01*
X230437500Y-114250000D02*
X229437500Y-114250000D01*
X229437500Y-100250000D02*
X230437500Y-100250000D01*
X229437500Y-101250000D02*
X229437500Y-100250000D01*
X243437500Y-113250000D02*
X243437500Y-114250000D01*
X243437500Y-119750000D02*
X243437500Y-120750000D01*
X242437500Y-119750000D02*
X243437500Y-119750000D01*
X243437500Y-133750000D02*
X242437500Y-133750000D01*
X229437500Y-133750000D02*
X229437500Y-132750000D01*
X230437500Y-133750000D02*
X229437500Y-133750000D01*
X229437500Y-119750000D02*
X230437500Y-119750000D01*
X229437500Y-120750000D02*
X229437500Y-119750000D01*
X243437500Y-132750000D02*
X243437500Y-133750000D01*
X262937500Y-36875000D02*
X262937500Y-37875000D01*
X261937500Y-36875000D02*
X262937500Y-36875000D01*
X262937500Y-50875000D02*
X261937500Y-50875000D01*
X248937500Y-50875000D02*
X248937500Y-49875000D01*
X249937500Y-50875000D02*
X248937500Y-50875000D01*
X248937500Y-36875000D02*
X249937500Y-36875000D01*
X248937500Y-37875000D02*
X248937500Y-36875000D01*
X262937500Y-49875000D02*
X262937500Y-50875000D01*
X262937500Y-56375000D02*
X262937500Y-57375000D01*
X261937500Y-56375000D02*
X262937500Y-56375000D01*
X262937500Y-70375000D02*
X261937500Y-70375000D01*
X248937500Y-70375000D02*
X248937500Y-69375000D01*
X249937500Y-70375000D02*
X248937500Y-70375000D01*
X248937500Y-56375000D02*
X249937500Y-56375000D01*
X248937500Y-57375000D02*
X248937500Y-56375000D01*
X262937500Y-69375000D02*
X262937500Y-70375000D01*
X262937500Y-75875000D02*
X262937500Y-76875000D01*
X261937500Y-75875000D02*
X262937500Y-75875000D01*
X262937500Y-89875000D02*
X261937500Y-89875000D01*
X248937500Y-89875000D02*
X248937500Y-88875000D01*
X249937500Y-89875000D02*
X248937500Y-89875000D01*
X248937500Y-75875000D02*
X249937500Y-75875000D01*
X248937500Y-76875000D02*
X248937500Y-75875000D01*
X262937500Y-88875000D02*
X262937500Y-89875000D01*
X262937500Y-95375000D02*
X262937500Y-96375000D01*
X261937500Y-95375000D02*
X262937500Y-95375000D01*
X262937500Y-109375000D02*
X261937500Y-109375000D01*
X248937500Y-109375000D02*
X248937500Y-108375000D01*
X249937500Y-109375000D02*
X248937500Y-109375000D01*
X248937500Y-95375000D02*
X249937500Y-95375000D01*
X248937500Y-96375000D02*
X248937500Y-95375000D01*
X262937500Y-108375000D02*
X262937500Y-109375000D01*
X262937500Y-114875000D02*
X262937500Y-115875000D01*
X261937500Y-114875000D02*
X262937500Y-114875000D01*
X262937500Y-128875000D02*
X261937500Y-128875000D01*
X248937500Y-128875000D02*
X248937500Y-127875000D01*
X249937500Y-128875000D02*
X248937500Y-128875000D01*
X248937500Y-114875000D02*
X249937500Y-114875000D01*
X248937500Y-115875000D02*
X248937500Y-114875000D01*
X262937500Y-127875000D02*
X262937500Y-128875000D01*
X282437500Y-34437500D02*
X282437500Y-35437500D01*
X281437500Y-34437500D02*
X282437500Y-34437500D01*
X282437500Y-48437500D02*
X281437500Y-48437500D01*
X268437500Y-48437500D02*
X268437500Y-47437500D01*
X269437500Y-48437500D02*
X268437500Y-48437500D01*
X268437500Y-34437500D02*
X269437500Y-34437500D01*
X268437500Y-35437500D02*
X268437500Y-34437500D01*
X282437500Y-47437500D02*
X282437500Y-48437500D01*
X282437500Y-53937500D02*
X282437500Y-54937500D01*
X281437500Y-53937500D02*
X282437500Y-53937500D01*
X282437500Y-67937500D02*
X281437500Y-67937500D01*
X268437500Y-67937500D02*
X268437500Y-66937500D01*
X269437500Y-67937500D02*
X268437500Y-67937500D01*
X268437500Y-53937500D02*
X269437500Y-53937500D01*
X268437500Y-54937500D02*
X268437500Y-53937500D01*
X282437500Y-66937500D02*
X282437500Y-67937500D01*
X282437500Y-73437500D02*
X282437500Y-74437500D01*
X281437500Y-73437500D02*
X282437500Y-73437500D01*
X282437500Y-87437500D02*
X281437500Y-87437500D01*
X268437500Y-87437500D02*
X268437500Y-86437500D01*
X269437500Y-87437500D02*
X268437500Y-87437500D01*
X268437500Y-73437500D02*
X269437500Y-73437500D01*
X268437500Y-74437500D02*
X268437500Y-73437500D01*
X282437500Y-86437500D02*
X282437500Y-87437500D01*
X282437500Y-92937500D02*
X282437500Y-93937500D01*
X281437500Y-92937500D02*
X282437500Y-92937500D01*
X282437500Y-106937500D02*
X281437500Y-106937500D01*
X268437500Y-106937500D02*
X268437500Y-105937500D01*
X269437500Y-106937500D02*
X268437500Y-106937500D01*
X268437500Y-92937500D02*
X269437500Y-92937500D01*
X268437500Y-93937500D02*
X268437500Y-92937500D01*
X282437500Y-105937500D02*
X282437500Y-106937500D01*
X282437500Y-112437500D02*
X282437500Y-113437500D01*
X281437500Y-112437500D02*
X282437500Y-112437500D01*
X282437500Y-126437500D02*
X281437500Y-126437500D01*
X268437500Y-126437500D02*
X268437500Y-125437500D01*
X269437500Y-126437500D02*
X268437500Y-126437500D01*
X268437500Y-112437500D02*
X269437500Y-112437500D01*
X268437500Y-113437500D02*
X268437500Y-112437500D01*
X282437500Y-125437500D02*
X282437500Y-126437500D01*
X301937500Y-36875000D02*
X301937500Y-37875000D01*
X300937500Y-36875000D02*
X301937500Y-36875000D01*
X301937500Y-50875000D02*
X300937500Y-50875000D01*
X287937500Y-50875000D02*
X287937500Y-49875000D01*
X288937500Y-50875000D02*
X287937500Y-50875000D01*
X287937500Y-36875000D02*
X288937500Y-36875000D01*
X287937500Y-37875000D02*
X287937500Y-36875000D01*
X301937500Y-49875000D02*
X301937500Y-50875000D01*
X301937500Y-56375000D02*
X301937500Y-57375000D01*
X300937500Y-56375000D02*
X301937500Y-56375000D01*
X301937500Y-70375000D02*
X300937500Y-70375000D01*
X287937500Y-70375000D02*
X287937500Y-69375000D01*
X288937500Y-70375000D02*
X287937500Y-70375000D01*
X287937500Y-56375000D02*
X288937500Y-56375000D01*
X287937500Y-57375000D02*
X287937500Y-56375000D01*
X301937500Y-69375000D02*
X301937500Y-70375000D01*
X301937500Y-75875000D02*
X301937500Y-76875000D01*
X300937500Y-75875000D02*
X301937500Y-75875000D01*
X301937500Y-89875000D02*
X300937500Y-89875000D01*
X287937500Y-89875000D02*
X287937500Y-88875000D01*
X288937500Y-89875000D02*
X287937500Y-89875000D01*
X287937500Y-75875000D02*
X288937500Y-75875000D01*
X287937500Y-76875000D02*
X287937500Y-75875000D01*
X301937500Y-88875000D02*
X301937500Y-89875000D01*
X301937500Y-95375000D02*
X301937500Y-96375000D01*
X300937500Y-95375000D02*
X301937500Y-95375000D01*
X301937500Y-109375000D02*
X300937500Y-109375000D01*
X287937500Y-109375000D02*
X287937500Y-108375000D01*
X288937500Y-109375000D02*
X287937500Y-109375000D01*
X287937500Y-95375000D02*
X288937500Y-95375000D01*
X287937500Y-96375000D02*
X287937500Y-95375000D01*
X301937500Y-108375000D02*
X301937500Y-109375000D01*
X301937500Y-114875000D02*
X301937500Y-115875000D01*
X300937500Y-114875000D02*
X301937500Y-114875000D01*
X301937500Y-128875000D02*
X300937500Y-128875000D01*
X287937500Y-128875000D02*
X287937500Y-127875000D01*
X288937500Y-128875000D02*
X287937500Y-128875000D01*
X287937500Y-114875000D02*
X288937500Y-114875000D01*
X287937500Y-115875000D02*
X287937500Y-114875000D01*
X301937500Y-127875000D02*
X301937500Y-128875000D01*
X321437500Y-41750000D02*
X321437500Y-42750000D01*
X320437500Y-41750000D02*
X321437500Y-41750000D01*
X321437500Y-55750000D02*
X320437500Y-55750000D01*
X307437500Y-55750000D02*
X307437500Y-54750000D01*
X308437500Y-55750000D02*
X307437500Y-55750000D01*
X307437500Y-41750000D02*
X308437500Y-41750000D01*
X307437500Y-42750000D02*
X307437500Y-41750000D01*
X321437500Y-54750000D02*
X321437500Y-55750000D01*
X321437500Y-80750000D02*
X321437500Y-81750000D01*
X320437500Y-80750000D02*
X321437500Y-80750000D01*
X321437500Y-94750000D02*
X320437500Y-94750000D01*
X307437500Y-94750000D02*
X307437500Y-93750000D01*
X308437500Y-94750000D02*
X307437500Y-94750000D01*
X307437500Y-80750000D02*
X308437500Y-80750000D01*
X307437500Y-81750000D02*
X307437500Y-80750000D01*
X321437500Y-93750000D02*
X321437500Y-94750000D01*
X321437500Y-100250000D02*
X321437500Y-101250000D01*
X320437500Y-100250000D02*
X321437500Y-100250000D01*
X321437500Y-114250000D02*
X320437500Y-114250000D01*
X307437500Y-114250000D02*
X307437500Y-113250000D01*
X308437500Y-114250000D02*
X307437500Y-114250000D01*
X307437500Y-100250000D02*
X308437500Y-100250000D01*
X307437500Y-101250000D02*
X307437500Y-100250000D01*
X321437500Y-113250000D02*
X321437500Y-114250000D01*
X321437500Y-119750000D02*
X321437500Y-120750000D01*
X320437500Y-119750000D02*
X321437500Y-119750000D01*
X321437500Y-133750000D02*
X320437500Y-133750000D01*
X307437500Y-133750000D02*
X307437500Y-132750000D01*
X308437500Y-133750000D02*
X307437500Y-133750000D01*
X307437500Y-119750000D02*
X308437500Y-119750000D01*
X307437500Y-120750000D02*
X307437500Y-119750000D01*
X321437500Y-132750000D02*
X321437500Y-133750000D01*
X340937500Y-44187500D02*
X340937500Y-45187500D01*
X339937500Y-44187500D02*
X340937500Y-44187500D01*
X340937500Y-58187500D02*
X339937500Y-58187500D01*
X326937500Y-58187500D02*
X326937500Y-57187500D01*
X327937500Y-58187500D02*
X326937500Y-58187500D01*
X326937500Y-44187500D02*
X327937500Y-44187500D01*
X326937500Y-45187500D02*
X326937500Y-44187500D01*
X340937500Y-57187500D02*
X340937500Y-58187500D01*
X340937500Y-63687500D02*
X340937500Y-64687500D01*
X339937500Y-63687500D02*
X340937500Y-63687500D01*
X340937500Y-77687500D02*
X339937500Y-77687500D01*
X326937500Y-77687500D02*
X326937500Y-76687500D01*
X327937500Y-77687500D02*
X326937500Y-77687500D01*
X326937500Y-63687500D02*
X327937500Y-63687500D01*
X326937500Y-64687500D02*
X326937500Y-63687500D01*
X340937500Y-76687500D02*
X340937500Y-77687500D01*
X340937500Y-83187500D02*
X340937500Y-84187500D01*
X339937500Y-83187500D02*
X340937500Y-83187500D01*
X340937500Y-97187500D02*
X339937500Y-97187500D01*
X326937500Y-97187500D02*
X326937500Y-96187500D01*
X327937500Y-97187500D02*
X326937500Y-97187500D01*
X326937500Y-83187500D02*
X327937500Y-83187500D01*
X326937500Y-84187500D02*
X326937500Y-83187500D01*
X340937500Y-96187500D02*
X340937500Y-97187500D01*
X340937500Y-102687500D02*
X340937500Y-103687500D01*
X339937500Y-102687500D02*
X340937500Y-102687500D01*
X340937500Y-116687500D02*
X339937500Y-116687500D01*
X326937500Y-116687500D02*
X326937500Y-115687500D01*
X327937500Y-116687500D02*
X326937500Y-116687500D01*
X326937500Y-102687500D02*
X327937500Y-102687500D01*
X326937500Y-103687500D02*
X326937500Y-102687500D01*
X340937500Y-115687500D02*
X340937500Y-116687500D01*
X340937500Y-122187500D02*
X340937500Y-123187500D01*
X339937500Y-122187500D02*
X340937500Y-122187500D01*
X340937500Y-136187500D02*
X339937500Y-136187500D01*
X326937500Y-136187500D02*
X326937500Y-135187500D01*
X327937500Y-136187500D02*
X326937500Y-136187500D01*
X326937500Y-122187500D02*
X327937500Y-122187500D01*
X326937500Y-123187500D02*
X326937500Y-122187500D01*
X340937500Y-135187500D02*
X340937500Y-136187500D01*
X316247023Y-76954761D02*
X316104166Y-77002380D01*
X315866071Y-77002380D01*
X315770833Y-76954761D01*
X315723214Y-76907142D01*
X315675595Y-76811904D01*
X315675595Y-76716666D01*
X315723214Y-76621428D01*
X315770833Y-76573809D01*
X315866071Y-76526190D01*
X316056547Y-76478571D01*
X316151785Y-76430952D01*
X316199404Y-76383333D01*
X316247023Y-76288095D01*
X316247023Y-76192857D01*
X316199404Y-76097619D01*
X316151785Y-76050000D01*
X316056547Y-76002380D01*
X315818452Y-76002380D01*
X315675595Y-76050000D01*
X315342261Y-76002380D02*
X315104166Y-77002380D01*
X314913690Y-76288095D01*
X314723214Y-77002380D01*
X314485119Y-76002380D01*
X313675595Y-76002380D02*
X313866071Y-76002380D01*
X313961309Y-76050000D01*
X314008928Y-76097619D01*
X314104166Y-76240476D01*
X314151785Y-76430952D01*
X314151785Y-76811904D01*
X314104166Y-76907142D01*
X314056547Y-76954761D01*
X313961309Y-77002380D01*
X313770833Y-77002380D01*
X313675595Y-76954761D01*
X313627976Y-76907142D01*
X313580357Y-76811904D01*
X313580357Y-76573809D01*
X313627976Y-76478571D01*
X313675595Y-76430952D01*
X313770833Y-76383333D01*
X313961309Y-76383333D01*
X314056547Y-76430952D01*
X314104166Y-76478571D01*
X314151785Y-76573809D01*
X313199404Y-76097619D02*
X313151785Y-76050000D01*
X313056547Y-76002380D01*
X312818452Y-76002380D01*
X312723214Y-76050000D01*
X312675595Y-76097619D01*
X312627976Y-76192857D01*
X312627976Y-76288095D01*
X312675595Y-76430952D01*
X313247023Y-77002380D01*
X312627976Y-77002380D01*
X23270833Y-59892261D02*
X23127976Y-59939880D01*
X22889880Y-59939880D01*
X22794642Y-59892261D01*
X22747023Y-59844642D01*
X22699404Y-59749404D01*
X22699404Y-59654166D01*
X22747023Y-59558928D01*
X22794642Y-59511309D01*
X22889880Y-59463690D01*
X23080357Y-59416071D01*
X23175595Y-59368452D01*
X23223214Y-59320833D01*
X23270833Y-59225595D01*
X23270833Y-59130357D01*
X23223214Y-59035119D01*
X23175595Y-58987500D01*
X23080357Y-58939880D01*
X22842261Y-58939880D01*
X22699404Y-58987500D01*
X22366071Y-58939880D02*
X22127976Y-59939880D01*
X21937500Y-59225595D01*
X21747023Y-59939880D01*
X21508928Y-58939880D01*
X20604166Y-59939880D02*
X21175595Y-59939880D01*
X20889880Y-59939880D02*
X20889880Y-58939880D01*
X20985119Y-59082738D01*
X21080357Y-59177976D01*
X21175595Y-59225595D01*
X23270833Y-79392261D02*
X23127976Y-79439880D01*
X22889880Y-79439880D01*
X22794642Y-79392261D01*
X22747023Y-79344642D01*
X22699404Y-79249404D01*
X22699404Y-79154166D01*
X22747023Y-79058928D01*
X22794642Y-79011309D01*
X22889880Y-78963690D01*
X23080357Y-78916071D01*
X23175595Y-78868452D01*
X23223214Y-78820833D01*
X23270833Y-78725595D01*
X23270833Y-78630357D01*
X23223214Y-78535119D01*
X23175595Y-78487500D01*
X23080357Y-78439880D01*
X22842261Y-78439880D01*
X22699404Y-78487500D01*
X22366071Y-78439880D02*
X22127976Y-79439880D01*
X21937500Y-78725595D01*
X21747023Y-79439880D01*
X21508928Y-78439880D01*
X21175595Y-78535119D02*
X21127976Y-78487500D01*
X21032738Y-78439880D01*
X20794642Y-78439880D01*
X20699404Y-78487500D01*
X20651785Y-78535119D01*
X20604166Y-78630357D01*
X20604166Y-78725595D01*
X20651785Y-78868452D01*
X21223214Y-79439880D01*
X20604166Y-79439880D01*
X23270833Y-98892261D02*
X23127976Y-98939880D01*
X22889880Y-98939880D01*
X22794642Y-98892261D01*
X22747023Y-98844642D01*
X22699404Y-98749404D01*
X22699404Y-98654166D01*
X22747023Y-98558928D01*
X22794642Y-98511309D01*
X22889880Y-98463690D01*
X23080357Y-98416071D01*
X23175595Y-98368452D01*
X23223214Y-98320833D01*
X23270833Y-98225595D01*
X23270833Y-98130357D01*
X23223214Y-98035119D01*
X23175595Y-97987500D01*
X23080357Y-97939880D01*
X22842261Y-97939880D01*
X22699404Y-97987500D01*
X22366071Y-97939880D02*
X22127976Y-98939880D01*
X21937500Y-98225595D01*
X21747023Y-98939880D01*
X21508928Y-97939880D01*
X21223214Y-97939880D02*
X20604166Y-97939880D01*
X20937500Y-98320833D01*
X20794642Y-98320833D01*
X20699404Y-98368452D01*
X20651785Y-98416071D01*
X20604166Y-98511309D01*
X20604166Y-98749404D01*
X20651785Y-98844642D01*
X20699404Y-98892261D01*
X20794642Y-98939880D01*
X21080357Y-98939880D01*
X21175595Y-98892261D01*
X21223214Y-98844642D01*
X23270833Y-118392261D02*
X23127976Y-118439880D01*
X22889880Y-118439880D01*
X22794642Y-118392261D01*
X22747023Y-118344642D01*
X22699404Y-118249404D01*
X22699404Y-118154166D01*
X22747023Y-118058928D01*
X22794642Y-118011309D01*
X22889880Y-117963690D01*
X23080357Y-117916071D01*
X23175595Y-117868452D01*
X23223214Y-117820833D01*
X23270833Y-117725595D01*
X23270833Y-117630357D01*
X23223214Y-117535119D01*
X23175595Y-117487500D01*
X23080357Y-117439880D01*
X22842261Y-117439880D01*
X22699404Y-117487500D01*
X22366071Y-117439880D02*
X22127976Y-118439880D01*
X21937500Y-117725595D01*
X21747023Y-118439880D01*
X21508928Y-117439880D01*
X20699404Y-117773214D02*
X20699404Y-118439880D01*
X20937500Y-117392261D02*
X21175595Y-118106547D01*
X20556547Y-118106547D01*
X23270833Y-137892261D02*
X23127976Y-137939880D01*
X22889880Y-137939880D01*
X22794642Y-137892261D01*
X22747023Y-137844642D01*
X22699404Y-137749404D01*
X22699404Y-137654166D01*
X22747023Y-137558928D01*
X22794642Y-137511309D01*
X22889880Y-137463690D01*
X23080357Y-137416071D01*
X23175595Y-137368452D01*
X23223214Y-137320833D01*
X23270833Y-137225595D01*
X23270833Y-137130357D01*
X23223214Y-137035119D01*
X23175595Y-136987500D01*
X23080357Y-136939880D01*
X22842261Y-136939880D01*
X22699404Y-136987500D01*
X22366071Y-136939880D02*
X22127976Y-137939880D01*
X21937500Y-137225595D01*
X21747023Y-137939880D01*
X21508928Y-136939880D01*
X20651785Y-136939880D02*
X21127976Y-136939880D01*
X21175595Y-137416071D01*
X21127976Y-137368452D01*
X21032738Y-137320833D01*
X20794642Y-137320833D01*
X20699404Y-137368452D01*
X20651785Y-137416071D01*
X20604166Y-137511309D01*
X20604166Y-137749404D01*
X20651785Y-137844642D01*
X20699404Y-137892261D01*
X20794642Y-137939880D01*
X21032738Y-137939880D01*
X21127976Y-137892261D01*
X21175595Y-137844642D01*
X42770833Y-55017261D02*
X42627976Y-55064880D01*
X42389880Y-55064880D01*
X42294642Y-55017261D01*
X42247023Y-54969642D01*
X42199404Y-54874404D01*
X42199404Y-54779166D01*
X42247023Y-54683928D01*
X42294642Y-54636309D01*
X42389880Y-54588690D01*
X42580357Y-54541071D01*
X42675595Y-54493452D01*
X42723214Y-54445833D01*
X42770833Y-54350595D01*
X42770833Y-54255357D01*
X42723214Y-54160119D01*
X42675595Y-54112500D01*
X42580357Y-54064880D01*
X42342261Y-54064880D01*
X42199404Y-54112500D01*
X41866071Y-54064880D02*
X41627976Y-55064880D01*
X41437500Y-54350595D01*
X41247023Y-55064880D01*
X41008928Y-54064880D01*
X40199404Y-54064880D02*
X40389880Y-54064880D01*
X40485119Y-54112500D01*
X40532738Y-54160119D01*
X40627976Y-54302976D01*
X40675595Y-54493452D01*
X40675595Y-54874404D01*
X40627976Y-54969642D01*
X40580357Y-55017261D01*
X40485119Y-55064880D01*
X40294642Y-55064880D01*
X40199404Y-55017261D01*
X40151785Y-54969642D01*
X40104166Y-54874404D01*
X40104166Y-54636309D01*
X40151785Y-54541071D01*
X40199404Y-54493452D01*
X40294642Y-54445833D01*
X40485119Y-54445833D01*
X40580357Y-54493452D01*
X40627976Y-54541071D01*
X40675595Y-54636309D01*
X42770833Y-74517261D02*
X42627976Y-74564880D01*
X42389880Y-74564880D01*
X42294642Y-74517261D01*
X42247023Y-74469642D01*
X42199404Y-74374404D01*
X42199404Y-74279166D01*
X42247023Y-74183928D01*
X42294642Y-74136309D01*
X42389880Y-74088690D01*
X42580357Y-74041071D01*
X42675595Y-73993452D01*
X42723214Y-73945833D01*
X42770833Y-73850595D01*
X42770833Y-73755357D01*
X42723214Y-73660119D01*
X42675595Y-73612500D01*
X42580357Y-73564880D01*
X42342261Y-73564880D01*
X42199404Y-73612500D01*
X41866071Y-73564880D02*
X41627976Y-74564880D01*
X41437500Y-73850595D01*
X41247023Y-74564880D01*
X41008928Y-73564880D01*
X40723214Y-73564880D02*
X40056547Y-73564880D01*
X40485119Y-74564880D01*
X42770833Y-94017261D02*
X42627976Y-94064880D01*
X42389880Y-94064880D01*
X42294642Y-94017261D01*
X42247023Y-93969642D01*
X42199404Y-93874404D01*
X42199404Y-93779166D01*
X42247023Y-93683928D01*
X42294642Y-93636309D01*
X42389880Y-93588690D01*
X42580357Y-93541071D01*
X42675595Y-93493452D01*
X42723214Y-93445833D01*
X42770833Y-93350595D01*
X42770833Y-93255357D01*
X42723214Y-93160119D01*
X42675595Y-93112500D01*
X42580357Y-93064880D01*
X42342261Y-93064880D01*
X42199404Y-93112500D01*
X41866071Y-93064880D02*
X41627976Y-94064880D01*
X41437500Y-93350595D01*
X41247023Y-94064880D01*
X41008928Y-93064880D01*
X40485119Y-93493452D02*
X40580357Y-93445833D01*
X40627976Y-93398214D01*
X40675595Y-93302976D01*
X40675595Y-93255357D01*
X40627976Y-93160119D01*
X40580357Y-93112500D01*
X40485119Y-93064880D01*
X40294642Y-93064880D01*
X40199404Y-93112500D01*
X40151785Y-93160119D01*
X40104166Y-93255357D01*
X40104166Y-93302976D01*
X40151785Y-93398214D01*
X40199404Y-93445833D01*
X40294642Y-93493452D01*
X40485119Y-93493452D01*
X40580357Y-93541071D01*
X40627976Y-93588690D01*
X40675595Y-93683928D01*
X40675595Y-93874404D01*
X40627976Y-93969642D01*
X40580357Y-94017261D01*
X40485119Y-94064880D01*
X40294642Y-94064880D01*
X40199404Y-94017261D01*
X40151785Y-93969642D01*
X40104166Y-93874404D01*
X40104166Y-93683928D01*
X40151785Y-93588690D01*
X40199404Y-93541071D01*
X40294642Y-93493452D01*
X42770833Y-113517261D02*
X42627976Y-113564880D01*
X42389880Y-113564880D01*
X42294642Y-113517261D01*
X42247023Y-113469642D01*
X42199404Y-113374404D01*
X42199404Y-113279166D01*
X42247023Y-113183928D01*
X42294642Y-113136309D01*
X42389880Y-113088690D01*
X42580357Y-113041071D01*
X42675595Y-112993452D01*
X42723214Y-112945833D01*
X42770833Y-112850595D01*
X42770833Y-112755357D01*
X42723214Y-112660119D01*
X42675595Y-112612500D01*
X42580357Y-112564880D01*
X42342261Y-112564880D01*
X42199404Y-112612500D01*
X41866071Y-112564880D02*
X41627976Y-113564880D01*
X41437500Y-112850595D01*
X41247023Y-113564880D01*
X41008928Y-112564880D01*
X40580357Y-113564880D02*
X40389880Y-113564880D01*
X40294642Y-113517261D01*
X40247023Y-113469642D01*
X40151785Y-113326785D01*
X40104166Y-113136309D01*
X40104166Y-112755357D01*
X40151785Y-112660119D01*
X40199404Y-112612500D01*
X40294642Y-112564880D01*
X40485119Y-112564880D01*
X40580357Y-112612500D01*
X40627976Y-112660119D01*
X40675595Y-112755357D01*
X40675595Y-112993452D01*
X40627976Y-113088690D01*
X40580357Y-113136309D01*
X40485119Y-113183928D01*
X40294642Y-113183928D01*
X40199404Y-113136309D01*
X40151785Y-113088690D01*
X40104166Y-112993452D01*
X43247023Y-133017261D02*
X43104166Y-133064880D01*
X42866071Y-133064880D01*
X42770833Y-133017261D01*
X42723214Y-132969642D01*
X42675595Y-132874404D01*
X42675595Y-132779166D01*
X42723214Y-132683928D01*
X42770833Y-132636309D01*
X42866071Y-132588690D01*
X43056547Y-132541071D01*
X43151785Y-132493452D01*
X43199404Y-132445833D01*
X43247023Y-132350595D01*
X43247023Y-132255357D01*
X43199404Y-132160119D01*
X43151785Y-132112500D01*
X43056547Y-132064880D01*
X42818452Y-132064880D01*
X42675595Y-132112500D01*
X42342261Y-132064880D02*
X42104166Y-133064880D01*
X41913690Y-132350595D01*
X41723214Y-133064880D01*
X41485119Y-132064880D01*
X40580357Y-133064880D02*
X41151785Y-133064880D01*
X40866071Y-133064880D02*
X40866071Y-132064880D01*
X40961309Y-132207738D01*
X41056547Y-132302976D01*
X41151785Y-132350595D01*
X39961309Y-132064880D02*
X39866071Y-132064880D01*
X39770833Y-132112500D01*
X39723214Y-132160119D01*
X39675595Y-132255357D01*
X39627976Y-132445833D01*
X39627976Y-132683928D01*
X39675595Y-132874404D01*
X39723214Y-132969642D01*
X39770833Y-133017261D01*
X39866071Y-133064880D01*
X39961309Y-133064880D01*
X40056547Y-133017261D01*
X40104166Y-132969642D01*
X40151785Y-132874404D01*
X40199404Y-132683928D01*
X40199404Y-132445833D01*
X40151785Y-132255357D01*
X40104166Y-132160119D01*
X40056547Y-132112500D01*
X39961309Y-132064880D01*
X62747023Y-52579761D02*
X62604166Y-52627380D01*
X62366071Y-52627380D01*
X62270833Y-52579761D01*
X62223214Y-52532142D01*
X62175595Y-52436904D01*
X62175595Y-52341666D01*
X62223214Y-52246428D01*
X62270833Y-52198809D01*
X62366071Y-52151190D01*
X62556547Y-52103571D01*
X62651785Y-52055952D01*
X62699404Y-52008333D01*
X62747023Y-51913095D01*
X62747023Y-51817857D01*
X62699404Y-51722619D01*
X62651785Y-51675000D01*
X62556547Y-51627380D01*
X62318452Y-51627380D01*
X62175595Y-51675000D01*
X61842261Y-51627380D02*
X61604166Y-52627380D01*
X61413690Y-51913095D01*
X61223214Y-52627380D01*
X60985119Y-51627380D01*
X60080357Y-52627380D02*
X60651785Y-52627380D01*
X60366071Y-52627380D02*
X60366071Y-51627380D01*
X60461309Y-51770238D01*
X60556547Y-51865476D01*
X60651785Y-51913095D01*
X59127976Y-52627380D02*
X59699404Y-52627380D01*
X59413690Y-52627380D02*
X59413690Y-51627380D01*
X59508928Y-51770238D01*
X59604166Y-51865476D01*
X59699404Y-51913095D01*
X62747023Y-72079761D02*
X62604166Y-72127380D01*
X62366071Y-72127380D01*
X62270833Y-72079761D01*
X62223214Y-72032142D01*
X62175595Y-71936904D01*
X62175595Y-71841666D01*
X62223214Y-71746428D01*
X62270833Y-71698809D01*
X62366071Y-71651190D01*
X62556547Y-71603571D01*
X62651785Y-71555952D01*
X62699404Y-71508333D01*
X62747023Y-71413095D01*
X62747023Y-71317857D01*
X62699404Y-71222619D01*
X62651785Y-71175000D01*
X62556547Y-71127380D01*
X62318452Y-71127380D01*
X62175595Y-71175000D01*
X61842261Y-71127380D02*
X61604166Y-72127380D01*
X61413690Y-71413095D01*
X61223214Y-72127380D01*
X60985119Y-71127380D01*
X60080357Y-72127380D02*
X60651785Y-72127380D01*
X60366071Y-72127380D02*
X60366071Y-71127380D01*
X60461309Y-71270238D01*
X60556547Y-71365476D01*
X60651785Y-71413095D01*
X59699404Y-71222619D02*
X59651785Y-71175000D01*
X59556547Y-71127380D01*
X59318452Y-71127380D01*
X59223214Y-71175000D01*
X59175595Y-71222619D01*
X59127976Y-71317857D01*
X59127976Y-71413095D01*
X59175595Y-71555952D01*
X59747023Y-72127380D01*
X59127976Y-72127380D01*
X62747023Y-91579761D02*
X62604166Y-91627380D01*
X62366071Y-91627380D01*
X62270833Y-91579761D01*
X62223214Y-91532142D01*
X62175595Y-91436904D01*
X62175595Y-91341666D01*
X62223214Y-91246428D01*
X62270833Y-91198809D01*
X62366071Y-91151190D01*
X62556547Y-91103571D01*
X62651785Y-91055952D01*
X62699404Y-91008333D01*
X62747023Y-90913095D01*
X62747023Y-90817857D01*
X62699404Y-90722619D01*
X62651785Y-90675000D01*
X62556547Y-90627380D01*
X62318452Y-90627380D01*
X62175595Y-90675000D01*
X61842261Y-90627380D02*
X61604166Y-91627380D01*
X61413690Y-90913095D01*
X61223214Y-91627380D01*
X60985119Y-90627380D01*
X60080357Y-91627380D02*
X60651785Y-91627380D01*
X60366071Y-91627380D02*
X60366071Y-90627380D01*
X60461309Y-90770238D01*
X60556547Y-90865476D01*
X60651785Y-90913095D01*
X59747023Y-90627380D02*
X59127976Y-90627380D01*
X59461309Y-91008333D01*
X59318452Y-91008333D01*
X59223214Y-91055952D01*
X59175595Y-91103571D01*
X59127976Y-91198809D01*
X59127976Y-91436904D01*
X59175595Y-91532142D01*
X59223214Y-91579761D01*
X59318452Y-91627380D01*
X59604166Y-91627380D01*
X59699404Y-91579761D01*
X59747023Y-91532142D01*
X62747023Y-111079761D02*
X62604166Y-111127380D01*
X62366071Y-111127380D01*
X62270833Y-111079761D01*
X62223214Y-111032142D01*
X62175595Y-110936904D01*
X62175595Y-110841666D01*
X62223214Y-110746428D01*
X62270833Y-110698809D01*
X62366071Y-110651190D01*
X62556547Y-110603571D01*
X62651785Y-110555952D01*
X62699404Y-110508333D01*
X62747023Y-110413095D01*
X62747023Y-110317857D01*
X62699404Y-110222619D01*
X62651785Y-110175000D01*
X62556547Y-110127380D01*
X62318452Y-110127380D01*
X62175595Y-110175000D01*
X61842261Y-110127380D02*
X61604166Y-111127380D01*
X61413690Y-110413095D01*
X61223214Y-111127380D01*
X60985119Y-110127380D01*
X60080357Y-111127380D02*
X60651785Y-111127380D01*
X60366071Y-111127380D02*
X60366071Y-110127380D01*
X60461309Y-110270238D01*
X60556547Y-110365476D01*
X60651785Y-110413095D01*
X59223214Y-110460714D02*
X59223214Y-111127380D01*
X59461309Y-110079761D02*
X59699404Y-110794047D01*
X59080357Y-110794047D01*
X62747023Y-130579761D02*
X62604166Y-130627380D01*
X62366071Y-130627380D01*
X62270833Y-130579761D01*
X62223214Y-130532142D01*
X62175595Y-130436904D01*
X62175595Y-130341666D01*
X62223214Y-130246428D01*
X62270833Y-130198809D01*
X62366071Y-130151190D01*
X62556547Y-130103571D01*
X62651785Y-130055952D01*
X62699404Y-130008333D01*
X62747023Y-129913095D01*
X62747023Y-129817857D01*
X62699404Y-129722619D01*
X62651785Y-129675000D01*
X62556547Y-129627380D01*
X62318452Y-129627380D01*
X62175595Y-129675000D01*
X61842261Y-129627380D02*
X61604166Y-130627380D01*
X61413690Y-129913095D01*
X61223214Y-130627380D01*
X60985119Y-129627380D01*
X60080357Y-130627380D02*
X60651785Y-130627380D01*
X60366071Y-130627380D02*
X60366071Y-129627380D01*
X60461309Y-129770238D01*
X60556547Y-129865476D01*
X60651785Y-129913095D01*
X59175595Y-129627380D02*
X59651785Y-129627380D01*
X59699404Y-130103571D01*
X59651785Y-130055952D01*
X59556547Y-130008333D01*
X59318452Y-130008333D01*
X59223214Y-130055952D01*
X59175595Y-130103571D01*
X59127976Y-130198809D01*
X59127976Y-130436904D01*
X59175595Y-130532142D01*
X59223214Y-130579761D01*
X59318452Y-130627380D01*
X59556547Y-130627380D01*
X59651785Y-130579761D01*
X59699404Y-130532142D01*
X82247023Y-50142261D02*
X82104166Y-50189880D01*
X81866071Y-50189880D01*
X81770833Y-50142261D01*
X81723214Y-50094642D01*
X81675595Y-49999404D01*
X81675595Y-49904166D01*
X81723214Y-49808928D01*
X81770833Y-49761309D01*
X81866071Y-49713690D01*
X82056547Y-49666071D01*
X82151785Y-49618452D01*
X82199404Y-49570833D01*
X82247023Y-49475595D01*
X82247023Y-49380357D01*
X82199404Y-49285119D01*
X82151785Y-49237500D01*
X82056547Y-49189880D01*
X81818452Y-49189880D01*
X81675595Y-49237500D01*
X81342261Y-49189880D02*
X81104166Y-50189880D01*
X80913690Y-49475595D01*
X80723214Y-50189880D01*
X80485119Y-49189880D01*
X79580357Y-50189880D02*
X80151785Y-50189880D01*
X79866071Y-50189880D02*
X79866071Y-49189880D01*
X79961309Y-49332738D01*
X80056547Y-49427976D01*
X80151785Y-49475595D01*
X78723214Y-49189880D02*
X78913690Y-49189880D01*
X79008928Y-49237500D01*
X79056547Y-49285119D01*
X79151785Y-49427976D01*
X79199404Y-49618452D01*
X79199404Y-49999404D01*
X79151785Y-50094642D01*
X79104166Y-50142261D01*
X79008928Y-50189880D01*
X78818452Y-50189880D01*
X78723214Y-50142261D01*
X78675595Y-50094642D01*
X78627976Y-49999404D01*
X78627976Y-49761309D01*
X78675595Y-49666071D01*
X78723214Y-49618452D01*
X78818452Y-49570833D01*
X79008928Y-49570833D01*
X79104166Y-49618452D01*
X79151785Y-49666071D01*
X79199404Y-49761309D01*
X82247023Y-69642261D02*
X82104166Y-69689880D01*
X81866071Y-69689880D01*
X81770833Y-69642261D01*
X81723214Y-69594642D01*
X81675595Y-69499404D01*
X81675595Y-69404166D01*
X81723214Y-69308928D01*
X81770833Y-69261309D01*
X81866071Y-69213690D01*
X82056547Y-69166071D01*
X82151785Y-69118452D01*
X82199404Y-69070833D01*
X82247023Y-68975595D01*
X82247023Y-68880357D01*
X82199404Y-68785119D01*
X82151785Y-68737500D01*
X82056547Y-68689880D01*
X81818452Y-68689880D01*
X81675595Y-68737500D01*
X81342261Y-68689880D02*
X81104166Y-69689880D01*
X80913690Y-68975595D01*
X80723214Y-69689880D01*
X80485119Y-68689880D01*
X79580357Y-69689880D02*
X80151785Y-69689880D01*
X79866071Y-69689880D02*
X79866071Y-68689880D01*
X79961309Y-68832738D01*
X80056547Y-68927976D01*
X80151785Y-68975595D01*
X79247023Y-68689880D02*
X78580357Y-68689880D01*
X79008928Y-69689880D01*
X82247023Y-89142261D02*
X82104166Y-89189880D01*
X81866071Y-89189880D01*
X81770833Y-89142261D01*
X81723214Y-89094642D01*
X81675595Y-88999404D01*
X81675595Y-88904166D01*
X81723214Y-88808928D01*
X81770833Y-88761309D01*
X81866071Y-88713690D01*
X82056547Y-88666071D01*
X82151785Y-88618452D01*
X82199404Y-88570833D01*
X82247023Y-88475595D01*
X82247023Y-88380357D01*
X82199404Y-88285119D01*
X82151785Y-88237500D01*
X82056547Y-88189880D01*
X81818452Y-88189880D01*
X81675595Y-88237500D01*
X81342261Y-88189880D02*
X81104166Y-89189880D01*
X80913690Y-88475595D01*
X80723214Y-89189880D01*
X80485119Y-88189880D01*
X79580357Y-89189880D02*
X80151785Y-89189880D01*
X79866071Y-89189880D02*
X79866071Y-88189880D01*
X79961309Y-88332738D01*
X80056547Y-88427976D01*
X80151785Y-88475595D01*
X79008928Y-88618452D02*
X79104166Y-88570833D01*
X79151785Y-88523214D01*
X79199404Y-88427976D01*
X79199404Y-88380357D01*
X79151785Y-88285119D01*
X79104166Y-88237500D01*
X79008928Y-88189880D01*
X78818452Y-88189880D01*
X78723214Y-88237500D01*
X78675595Y-88285119D01*
X78627976Y-88380357D01*
X78627976Y-88427976D01*
X78675595Y-88523214D01*
X78723214Y-88570833D01*
X78818452Y-88618452D01*
X79008928Y-88618452D01*
X79104166Y-88666071D01*
X79151785Y-88713690D01*
X79199404Y-88808928D01*
X79199404Y-88999404D01*
X79151785Y-89094642D01*
X79104166Y-89142261D01*
X79008928Y-89189880D01*
X78818452Y-89189880D01*
X78723214Y-89142261D01*
X78675595Y-89094642D01*
X78627976Y-88999404D01*
X78627976Y-88808928D01*
X78675595Y-88713690D01*
X78723214Y-88666071D01*
X78818452Y-88618452D01*
X82247023Y-108642261D02*
X82104166Y-108689880D01*
X81866071Y-108689880D01*
X81770833Y-108642261D01*
X81723214Y-108594642D01*
X81675595Y-108499404D01*
X81675595Y-108404166D01*
X81723214Y-108308928D01*
X81770833Y-108261309D01*
X81866071Y-108213690D01*
X82056547Y-108166071D01*
X82151785Y-108118452D01*
X82199404Y-108070833D01*
X82247023Y-107975595D01*
X82247023Y-107880357D01*
X82199404Y-107785119D01*
X82151785Y-107737500D01*
X82056547Y-107689880D01*
X81818452Y-107689880D01*
X81675595Y-107737500D01*
X81342261Y-107689880D02*
X81104166Y-108689880D01*
X80913690Y-107975595D01*
X80723214Y-108689880D01*
X80485119Y-107689880D01*
X79580357Y-108689880D02*
X80151785Y-108689880D01*
X79866071Y-108689880D02*
X79866071Y-107689880D01*
X79961309Y-107832738D01*
X80056547Y-107927976D01*
X80151785Y-107975595D01*
X79104166Y-108689880D02*
X78913690Y-108689880D01*
X78818452Y-108642261D01*
X78770833Y-108594642D01*
X78675595Y-108451785D01*
X78627976Y-108261309D01*
X78627976Y-107880357D01*
X78675595Y-107785119D01*
X78723214Y-107737500D01*
X78818452Y-107689880D01*
X79008928Y-107689880D01*
X79104166Y-107737500D01*
X79151785Y-107785119D01*
X79199404Y-107880357D01*
X79199404Y-108118452D01*
X79151785Y-108213690D01*
X79104166Y-108261309D01*
X79008928Y-108308928D01*
X78818452Y-108308928D01*
X78723214Y-108261309D01*
X78675595Y-108213690D01*
X78627976Y-108118452D01*
X82247023Y-128142261D02*
X82104166Y-128189880D01*
X81866071Y-128189880D01*
X81770833Y-128142261D01*
X81723214Y-128094642D01*
X81675595Y-127999404D01*
X81675595Y-127904166D01*
X81723214Y-127808928D01*
X81770833Y-127761309D01*
X81866071Y-127713690D01*
X82056547Y-127666071D01*
X82151785Y-127618452D01*
X82199404Y-127570833D01*
X82247023Y-127475595D01*
X82247023Y-127380357D01*
X82199404Y-127285119D01*
X82151785Y-127237500D01*
X82056547Y-127189880D01*
X81818452Y-127189880D01*
X81675595Y-127237500D01*
X81342261Y-127189880D02*
X81104166Y-128189880D01*
X80913690Y-127475595D01*
X80723214Y-128189880D01*
X80485119Y-127189880D01*
X80151785Y-127285119D02*
X80104166Y-127237500D01*
X80008928Y-127189880D01*
X79770833Y-127189880D01*
X79675595Y-127237500D01*
X79627976Y-127285119D01*
X79580357Y-127380357D01*
X79580357Y-127475595D01*
X79627976Y-127618452D01*
X80199404Y-128189880D01*
X79580357Y-128189880D01*
X78961309Y-127189880D02*
X78866071Y-127189880D01*
X78770833Y-127237500D01*
X78723214Y-127285119D01*
X78675595Y-127380357D01*
X78627976Y-127570833D01*
X78627976Y-127808928D01*
X78675595Y-127999404D01*
X78723214Y-128094642D01*
X78770833Y-128142261D01*
X78866071Y-128189880D01*
X78961309Y-128189880D01*
X79056547Y-128142261D01*
X79104166Y-128094642D01*
X79151785Y-127999404D01*
X79199404Y-127808928D01*
X79199404Y-127570833D01*
X79151785Y-127380357D01*
X79104166Y-127285119D01*
X79056547Y-127237500D01*
X78961309Y-127189880D01*
X101747023Y-52579761D02*
X101604166Y-52627380D01*
X101366071Y-52627380D01*
X101270833Y-52579761D01*
X101223214Y-52532142D01*
X101175595Y-52436904D01*
X101175595Y-52341666D01*
X101223214Y-52246428D01*
X101270833Y-52198809D01*
X101366071Y-52151190D01*
X101556547Y-52103571D01*
X101651785Y-52055952D01*
X101699404Y-52008333D01*
X101747023Y-51913095D01*
X101747023Y-51817857D01*
X101699404Y-51722619D01*
X101651785Y-51675000D01*
X101556547Y-51627380D01*
X101318452Y-51627380D01*
X101175595Y-51675000D01*
X100842261Y-51627380D02*
X100604166Y-52627380D01*
X100413690Y-51913095D01*
X100223214Y-52627380D01*
X99985119Y-51627380D01*
X99651785Y-51722619D02*
X99604166Y-51675000D01*
X99508928Y-51627380D01*
X99270833Y-51627380D01*
X99175595Y-51675000D01*
X99127976Y-51722619D01*
X99080357Y-51817857D01*
X99080357Y-51913095D01*
X99127976Y-52055952D01*
X99699404Y-52627380D01*
X99080357Y-52627380D01*
X98127976Y-52627380D02*
X98699404Y-52627380D01*
X98413690Y-52627380D02*
X98413690Y-51627380D01*
X98508928Y-51770238D01*
X98604166Y-51865476D01*
X98699404Y-51913095D01*
X101747023Y-72079761D02*
X101604166Y-72127380D01*
X101366071Y-72127380D01*
X101270833Y-72079761D01*
X101223214Y-72032142D01*
X101175595Y-71936904D01*
X101175595Y-71841666D01*
X101223214Y-71746428D01*
X101270833Y-71698809D01*
X101366071Y-71651190D01*
X101556547Y-71603571D01*
X101651785Y-71555952D01*
X101699404Y-71508333D01*
X101747023Y-71413095D01*
X101747023Y-71317857D01*
X101699404Y-71222619D01*
X101651785Y-71175000D01*
X101556547Y-71127380D01*
X101318452Y-71127380D01*
X101175595Y-71175000D01*
X100842261Y-71127380D02*
X100604166Y-72127380D01*
X100413690Y-71413095D01*
X100223214Y-72127380D01*
X99985119Y-71127380D01*
X99651785Y-71222619D02*
X99604166Y-71175000D01*
X99508928Y-71127380D01*
X99270833Y-71127380D01*
X99175595Y-71175000D01*
X99127976Y-71222619D01*
X99080357Y-71317857D01*
X99080357Y-71413095D01*
X99127976Y-71555952D01*
X99699404Y-72127380D01*
X99080357Y-72127380D01*
X98699404Y-71222619D02*
X98651785Y-71175000D01*
X98556547Y-71127380D01*
X98318452Y-71127380D01*
X98223214Y-71175000D01*
X98175595Y-71222619D01*
X98127976Y-71317857D01*
X98127976Y-71413095D01*
X98175595Y-71555952D01*
X98747023Y-72127380D01*
X98127976Y-72127380D01*
X101747023Y-91579761D02*
X101604166Y-91627380D01*
X101366071Y-91627380D01*
X101270833Y-91579761D01*
X101223214Y-91532142D01*
X101175595Y-91436904D01*
X101175595Y-91341666D01*
X101223214Y-91246428D01*
X101270833Y-91198809D01*
X101366071Y-91151190D01*
X101556547Y-91103571D01*
X101651785Y-91055952D01*
X101699404Y-91008333D01*
X101747023Y-90913095D01*
X101747023Y-90817857D01*
X101699404Y-90722619D01*
X101651785Y-90675000D01*
X101556547Y-90627380D01*
X101318452Y-90627380D01*
X101175595Y-90675000D01*
X100842261Y-90627380D02*
X100604166Y-91627380D01*
X100413690Y-90913095D01*
X100223214Y-91627380D01*
X99985119Y-90627380D01*
X99651785Y-90722619D02*
X99604166Y-90675000D01*
X99508928Y-90627380D01*
X99270833Y-90627380D01*
X99175595Y-90675000D01*
X99127976Y-90722619D01*
X99080357Y-90817857D01*
X99080357Y-90913095D01*
X99127976Y-91055952D01*
X99699404Y-91627380D01*
X99080357Y-91627380D01*
X98747023Y-90627380D02*
X98127976Y-90627380D01*
X98461309Y-91008333D01*
X98318452Y-91008333D01*
X98223214Y-91055952D01*
X98175595Y-91103571D01*
X98127976Y-91198809D01*
X98127976Y-91436904D01*
X98175595Y-91532142D01*
X98223214Y-91579761D01*
X98318452Y-91627380D01*
X98604166Y-91627380D01*
X98699404Y-91579761D01*
X98747023Y-91532142D01*
X101747023Y-111079761D02*
X101604166Y-111127380D01*
X101366071Y-111127380D01*
X101270833Y-111079761D01*
X101223214Y-111032142D01*
X101175595Y-110936904D01*
X101175595Y-110841666D01*
X101223214Y-110746428D01*
X101270833Y-110698809D01*
X101366071Y-110651190D01*
X101556547Y-110603571D01*
X101651785Y-110555952D01*
X101699404Y-110508333D01*
X101747023Y-110413095D01*
X101747023Y-110317857D01*
X101699404Y-110222619D01*
X101651785Y-110175000D01*
X101556547Y-110127380D01*
X101318452Y-110127380D01*
X101175595Y-110175000D01*
X100842261Y-110127380D02*
X100604166Y-111127380D01*
X100413690Y-110413095D01*
X100223214Y-111127380D01*
X99985119Y-110127380D01*
X99651785Y-110222619D02*
X99604166Y-110175000D01*
X99508928Y-110127380D01*
X99270833Y-110127380D01*
X99175595Y-110175000D01*
X99127976Y-110222619D01*
X99080357Y-110317857D01*
X99080357Y-110413095D01*
X99127976Y-110555952D01*
X99699404Y-111127380D01*
X99080357Y-111127380D01*
X98223214Y-110460714D02*
X98223214Y-111127380D01*
X98461309Y-110079761D02*
X98699404Y-110794047D01*
X98080357Y-110794047D01*
X101747023Y-130579761D02*
X101604166Y-130627380D01*
X101366071Y-130627380D01*
X101270833Y-130579761D01*
X101223214Y-130532142D01*
X101175595Y-130436904D01*
X101175595Y-130341666D01*
X101223214Y-130246428D01*
X101270833Y-130198809D01*
X101366071Y-130151190D01*
X101556547Y-130103571D01*
X101651785Y-130055952D01*
X101699404Y-130008333D01*
X101747023Y-129913095D01*
X101747023Y-129817857D01*
X101699404Y-129722619D01*
X101651785Y-129675000D01*
X101556547Y-129627380D01*
X101318452Y-129627380D01*
X101175595Y-129675000D01*
X100842261Y-129627380D02*
X100604166Y-130627380D01*
X100413690Y-129913095D01*
X100223214Y-130627380D01*
X99985119Y-129627380D01*
X99651785Y-129722619D02*
X99604166Y-129675000D01*
X99508928Y-129627380D01*
X99270833Y-129627380D01*
X99175595Y-129675000D01*
X99127976Y-129722619D01*
X99080357Y-129817857D01*
X99080357Y-129913095D01*
X99127976Y-130055952D01*
X99699404Y-130627380D01*
X99080357Y-130627380D01*
X98175595Y-129627380D02*
X98651785Y-129627380D01*
X98699404Y-130103571D01*
X98651785Y-130055952D01*
X98556547Y-130008333D01*
X98318452Y-130008333D01*
X98223214Y-130055952D01*
X98175595Y-130103571D01*
X98127976Y-130198809D01*
X98127976Y-130436904D01*
X98175595Y-130532142D01*
X98223214Y-130579761D01*
X98318452Y-130627380D01*
X98556547Y-130627380D01*
X98651785Y-130579761D01*
X98699404Y-130532142D01*
X121247023Y-57454761D02*
X121104166Y-57502380D01*
X120866071Y-57502380D01*
X120770833Y-57454761D01*
X120723214Y-57407142D01*
X120675595Y-57311904D01*
X120675595Y-57216666D01*
X120723214Y-57121428D01*
X120770833Y-57073809D01*
X120866071Y-57026190D01*
X121056547Y-56978571D01*
X121151785Y-56930952D01*
X121199404Y-56883333D01*
X121247023Y-56788095D01*
X121247023Y-56692857D01*
X121199404Y-56597619D01*
X121151785Y-56550000D01*
X121056547Y-56502380D01*
X120818452Y-56502380D01*
X120675595Y-56550000D01*
X120342261Y-56502380D02*
X120104166Y-57502380D01*
X119913690Y-56788095D01*
X119723214Y-57502380D01*
X119485119Y-56502380D01*
X119151785Y-56597619D02*
X119104166Y-56550000D01*
X119008928Y-56502380D01*
X118770833Y-56502380D01*
X118675595Y-56550000D01*
X118627976Y-56597619D01*
X118580357Y-56692857D01*
X118580357Y-56788095D01*
X118627976Y-56930952D01*
X119199404Y-57502380D01*
X118580357Y-57502380D01*
X117723214Y-56502380D02*
X117913690Y-56502380D01*
X118008928Y-56550000D01*
X118056547Y-56597619D01*
X118151785Y-56740476D01*
X118199404Y-56930952D01*
X118199404Y-57311904D01*
X118151785Y-57407142D01*
X118104166Y-57454761D01*
X118008928Y-57502380D01*
X117818452Y-57502380D01*
X117723214Y-57454761D01*
X117675595Y-57407142D01*
X117627976Y-57311904D01*
X117627976Y-57073809D01*
X117675595Y-56978571D01*
X117723214Y-56930952D01*
X117818452Y-56883333D01*
X118008928Y-56883333D01*
X118104166Y-56930952D01*
X118151785Y-56978571D01*
X118199404Y-57073809D01*
X121247023Y-76954761D02*
X121104166Y-77002380D01*
X120866071Y-77002380D01*
X120770833Y-76954761D01*
X120723214Y-76907142D01*
X120675595Y-76811904D01*
X120675595Y-76716666D01*
X120723214Y-76621428D01*
X120770833Y-76573809D01*
X120866071Y-76526190D01*
X121056547Y-76478571D01*
X121151785Y-76430952D01*
X121199404Y-76383333D01*
X121247023Y-76288095D01*
X121247023Y-76192857D01*
X121199404Y-76097619D01*
X121151785Y-76050000D01*
X121056547Y-76002380D01*
X120818452Y-76002380D01*
X120675595Y-76050000D01*
X120342261Y-76002380D02*
X120104166Y-77002380D01*
X119913690Y-76288095D01*
X119723214Y-77002380D01*
X119485119Y-76002380D01*
X119151785Y-76097619D02*
X119104166Y-76050000D01*
X119008928Y-76002380D01*
X118770833Y-76002380D01*
X118675595Y-76050000D01*
X118627976Y-76097619D01*
X118580357Y-76192857D01*
X118580357Y-76288095D01*
X118627976Y-76430952D01*
X119199404Y-77002380D01*
X118580357Y-77002380D01*
X118247023Y-76002380D02*
X117580357Y-76002380D01*
X118008928Y-77002380D01*
X121247023Y-96454761D02*
X121104166Y-96502380D01*
X120866071Y-96502380D01*
X120770833Y-96454761D01*
X120723214Y-96407142D01*
X120675595Y-96311904D01*
X120675595Y-96216666D01*
X120723214Y-96121428D01*
X120770833Y-96073809D01*
X120866071Y-96026190D01*
X121056547Y-95978571D01*
X121151785Y-95930952D01*
X121199404Y-95883333D01*
X121247023Y-95788095D01*
X121247023Y-95692857D01*
X121199404Y-95597619D01*
X121151785Y-95550000D01*
X121056547Y-95502380D01*
X120818452Y-95502380D01*
X120675595Y-95550000D01*
X120342261Y-95502380D02*
X120104166Y-96502380D01*
X119913690Y-95788095D01*
X119723214Y-96502380D01*
X119485119Y-95502380D01*
X119151785Y-95597619D02*
X119104166Y-95550000D01*
X119008928Y-95502380D01*
X118770833Y-95502380D01*
X118675595Y-95550000D01*
X118627976Y-95597619D01*
X118580357Y-95692857D01*
X118580357Y-95788095D01*
X118627976Y-95930952D01*
X119199404Y-96502380D01*
X118580357Y-96502380D01*
X118008928Y-95930952D02*
X118104166Y-95883333D01*
X118151785Y-95835714D01*
X118199404Y-95740476D01*
X118199404Y-95692857D01*
X118151785Y-95597619D01*
X118104166Y-95550000D01*
X118008928Y-95502380D01*
X117818452Y-95502380D01*
X117723214Y-95550000D01*
X117675595Y-95597619D01*
X117627976Y-95692857D01*
X117627976Y-95740476D01*
X117675595Y-95835714D01*
X117723214Y-95883333D01*
X117818452Y-95930952D01*
X118008928Y-95930952D01*
X118104166Y-95978571D01*
X118151785Y-96026190D01*
X118199404Y-96121428D01*
X118199404Y-96311904D01*
X118151785Y-96407142D01*
X118104166Y-96454761D01*
X118008928Y-96502380D01*
X117818452Y-96502380D01*
X117723214Y-96454761D01*
X117675595Y-96407142D01*
X117627976Y-96311904D01*
X117627976Y-96121428D01*
X117675595Y-96026190D01*
X117723214Y-95978571D01*
X117818452Y-95930952D01*
X121247023Y-115954761D02*
X121104166Y-116002380D01*
X120866071Y-116002380D01*
X120770833Y-115954761D01*
X120723214Y-115907142D01*
X120675595Y-115811904D01*
X120675595Y-115716666D01*
X120723214Y-115621428D01*
X120770833Y-115573809D01*
X120866071Y-115526190D01*
X121056547Y-115478571D01*
X121151785Y-115430952D01*
X121199404Y-115383333D01*
X121247023Y-115288095D01*
X121247023Y-115192857D01*
X121199404Y-115097619D01*
X121151785Y-115050000D01*
X121056547Y-115002380D01*
X120818452Y-115002380D01*
X120675595Y-115050000D01*
X120342261Y-115002380D02*
X120104166Y-116002380D01*
X119913690Y-115288095D01*
X119723214Y-116002380D01*
X119485119Y-115002380D01*
X119151785Y-115097619D02*
X119104166Y-115050000D01*
X119008928Y-115002380D01*
X118770833Y-115002380D01*
X118675595Y-115050000D01*
X118627976Y-115097619D01*
X118580357Y-115192857D01*
X118580357Y-115288095D01*
X118627976Y-115430952D01*
X119199404Y-116002380D01*
X118580357Y-116002380D01*
X118104166Y-116002380D02*
X117913690Y-116002380D01*
X117818452Y-115954761D01*
X117770833Y-115907142D01*
X117675595Y-115764285D01*
X117627976Y-115573809D01*
X117627976Y-115192857D01*
X117675595Y-115097619D01*
X117723214Y-115050000D01*
X117818452Y-115002380D01*
X118008928Y-115002380D01*
X118104166Y-115050000D01*
X118151785Y-115097619D01*
X118199404Y-115192857D01*
X118199404Y-115430952D01*
X118151785Y-115526190D01*
X118104166Y-115573809D01*
X118008928Y-115621428D01*
X117818452Y-115621428D01*
X117723214Y-115573809D01*
X117675595Y-115526190D01*
X117627976Y-115430952D01*
X121247023Y-135454761D02*
X121104166Y-135502380D01*
X120866071Y-135502380D01*
X120770833Y-135454761D01*
X120723214Y-135407142D01*
X120675595Y-135311904D01*
X120675595Y-135216666D01*
X120723214Y-135121428D01*
X120770833Y-135073809D01*
X120866071Y-135026190D01*
X121056547Y-134978571D01*
X121151785Y-134930952D01*
X121199404Y-134883333D01*
X121247023Y-134788095D01*
X121247023Y-134692857D01*
X121199404Y-134597619D01*
X121151785Y-134550000D01*
X121056547Y-134502380D01*
X120818452Y-134502380D01*
X120675595Y-134550000D01*
X120342261Y-134502380D02*
X120104166Y-135502380D01*
X119913690Y-134788095D01*
X119723214Y-135502380D01*
X119485119Y-134502380D01*
X119199404Y-134502380D02*
X118580357Y-134502380D01*
X118913690Y-134883333D01*
X118770833Y-134883333D01*
X118675595Y-134930952D01*
X118627976Y-134978571D01*
X118580357Y-135073809D01*
X118580357Y-135311904D01*
X118627976Y-135407142D01*
X118675595Y-135454761D01*
X118770833Y-135502380D01*
X119056547Y-135502380D01*
X119151785Y-135454761D01*
X119199404Y-135407142D01*
X117961309Y-134502380D02*
X117866071Y-134502380D01*
X117770833Y-134550000D01*
X117723214Y-134597619D01*
X117675595Y-134692857D01*
X117627976Y-134883333D01*
X117627976Y-135121428D01*
X117675595Y-135311904D01*
X117723214Y-135407142D01*
X117770833Y-135454761D01*
X117866071Y-135502380D01*
X117961309Y-135502380D01*
X118056547Y-135454761D01*
X118104166Y-135407142D01*
X118151785Y-135311904D01*
X118199404Y-135121428D01*
X118199404Y-134883333D01*
X118151785Y-134692857D01*
X118104166Y-134597619D01*
X118056547Y-134550000D01*
X117961309Y-134502380D01*
X140747023Y-118392261D02*
X140604166Y-118439880D01*
X140366071Y-118439880D01*
X140270833Y-118392261D01*
X140223214Y-118344642D01*
X140175595Y-118249404D01*
X140175595Y-118154166D01*
X140223214Y-118058928D01*
X140270833Y-118011309D01*
X140366071Y-117963690D01*
X140556547Y-117916071D01*
X140651785Y-117868452D01*
X140699404Y-117820833D01*
X140747023Y-117725595D01*
X140747023Y-117630357D01*
X140699404Y-117535119D01*
X140651785Y-117487500D01*
X140556547Y-117439880D01*
X140318452Y-117439880D01*
X140175595Y-117487500D01*
X139842261Y-117439880D02*
X139604166Y-118439880D01*
X139413690Y-117725595D01*
X139223214Y-118439880D01*
X138985119Y-117439880D01*
X138699404Y-117439880D02*
X138080357Y-117439880D01*
X138413690Y-117820833D01*
X138270833Y-117820833D01*
X138175595Y-117868452D01*
X138127976Y-117916071D01*
X138080357Y-118011309D01*
X138080357Y-118249404D01*
X138127976Y-118344642D01*
X138175595Y-118392261D01*
X138270833Y-118439880D01*
X138556547Y-118439880D01*
X138651785Y-118392261D01*
X138699404Y-118344642D01*
X137127976Y-118439880D02*
X137699404Y-118439880D01*
X137413690Y-118439880D02*
X137413690Y-117439880D01*
X137508928Y-117582738D01*
X137604166Y-117677976D01*
X137699404Y-117725595D01*
X140747023Y-137892261D02*
X140604166Y-137939880D01*
X140366071Y-137939880D01*
X140270833Y-137892261D01*
X140223214Y-137844642D01*
X140175595Y-137749404D01*
X140175595Y-137654166D01*
X140223214Y-137558928D01*
X140270833Y-137511309D01*
X140366071Y-137463690D01*
X140556547Y-137416071D01*
X140651785Y-137368452D01*
X140699404Y-137320833D01*
X140747023Y-137225595D01*
X140747023Y-137130357D01*
X140699404Y-137035119D01*
X140651785Y-136987500D01*
X140556547Y-136939880D01*
X140318452Y-136939880D01*
X140175595Y-136987500D01*
X139842261Y-136939880D02*
X139604166Y-137939880D01*
X139413690Y-137225595D01*
X139223214Y-137939880D01*
X138985119Y-136939880D01*
X138699404Y-136939880D02*
X138080357Y-136939880D01*
X138413690Y-137320833D01*
X138270833Y-137320833D01*
X138175595Y-137368452D01*
X138127976Y-137416071D01*
X138080357Y-137511309D01*
X138080357Y-137749404D01*
X138127976Y-137844642D01*
X138175595Y-137892261D01*
X138270833Y-137939880D01*
X138556547Y-137939880D01*
X138651785Y-137892261D01*
X138699404Y-137844642D01*
X137699404Y-137035119D02*
X137651785Y-136987500D01*
X137556547Y-136939880D01*
X137318452Y-136939880D01*
X137223214Y-136987500D01*
X137175595Y-137035119D01*
X137127976Y-137130357D01*
X137127976Y-137225595D01*
X137175595Y-137368452D01*
X137747023Y-137939880D01*
X137127976Y-137939880D01*
X160247023Y-120829761D02*
X160104166Y-120877380D01*
X159866071Y-120877380D01*
X159770833Y-120829761D01*
X159723214Y-120782142D01*
X159675595Y-120686904D01*
X159675595Y-120591666D01*
X159723214Y-120496428D01*
X159770833Y-120448809D01*
X159866071Y-120401190D01*
X160056547Y-120353571D01*
X160151785Y-120305952D01*
X160199404Y-120258333D01*
X160247023Y-120163095D01*
X160247023Y-120067857D01*
X160199404Y-119972619D01*
X160151785Y-119925000D01*
X160056547Y-119877380D01*
X159818452Y-119877380D01*
X159675595Y-119925000D01*
X159342261Y-119877380D02*
X159104166Y-120877380D01*
X158913690Y-120163095D01*
X158723214Y-120877380D01*
X158485119Y-119877380D01*
X158199404Y-119877380D02*
X157580357Y-119877380D01*
X157913690Y-120258333D01*
X157770833Y-120258333D01*
X157675595Y-120305952D01*
X157627976Y-120353571D01*
X157580357Y-120448809D01*
X157580357Y-120686904D01*
X157627976Y-120782142D01*
X157675595Y-120829761D01*
X157770833Y-120877380D01*
X158056547Y-120877380D01*
X158151785Y-120829761D01*
X158199404Y-120782142D01*
X157247023Y-119877380D02*
X156627976Y-119877380D01*
X156961309Y-120258333D01*
X156818452Y-120258333D01*
X156723214Y-120305952D01*
X156675595Y-120353571D01*
X156627976Y-120448809D01*
X156627976Y-120686904D01*
X156675595Y-120782142D01*
X156723214Y-120829761D01*
X156818452Y-120877380D01*
X157104166Y-120877380D01*
X157199404Y-120829761D01*
X157247023Y-120782142D01*
X160247023Y-140329761D02*
X160104166Y-140377380D01*
X159866071Y-140377380D01*
X159770833Y-140329761D01*
X159723214Y-140282142D01*
X159675595Y-140186904D01*
X159675595Y-140091666D01*
X159723214Y-139996428D01*
X159770833Y-139948809D01*
X159866071Y-139901190D01*
X160056547Y-139853571D01*
X160151785Y-139805952D01*
X160199404Y-139758333D01*
X160247023Y-139663095D01*
X160247023Y-139567857D01*
X160199404Y-139472619D01*
X160151785Y-139425000D01*
X160056547Y-139377380D01*
X159818452Y-139377380D01*
X159675595Y-139425000D01*
X159342261Y-139377380D02*
X159104166Y-140377380D01*
X158913690Y-139663095D01*
X158723214Y-140377380D01*
X158485119Y-139377380D01*
X158199404Y-139377380D02*
X157580357Y-139377380D01*
X157913690Y-139758333D01*
X157770833Y-139758333D01*
X157675595Y-139805952D01*
X157627976Y-139853571D01*
X157580357Y-139948809D01*
X157580357Y-140186904D01*
X157627976Y-140282142D01*
X157675595Y-140329761D01*
X157770833Y-140377380D01*
X158056547Y-140377380D01*
X158151785Y-140329761D01*
X158199404Y-140282142D01*
X156723214Y-139710714D02*
X156723214Y-140377380D01*
X156961309Y-139329761D02*
X157199404Y-140044047D01*
X156580357Y-140044047D01*
X179747023Y-123267261D02*
X179604166Y-123314880D01*
X179366071Y-123314880D01*
X179270833Y-123267261D01*
X179223214Y-123219642D01*
X179175595Y-123124404D01*
X179175595Y-123029166D01*
X179223214Y-122933928D01*
X179270833Y-122886309D01*
X179366071Y-122838690D01*
X179556547Y-122791071D01*
X179651785Y-122743452D01*
X179699404Y-122695833D01*
X179747023Y-122600595D01*
X179747023Y-122505357D01*
X179699404Y-122410119D01*
X179651785Y-122362500D01*
X179556547Y-122314880D01*
X179318452Y-122314880D01*
X179175595Y-122362500D01*
X178842261Y-122314880D02*
X178604166Y-123314880D01*
X178413690Y-122600595D01*
X178223214Y-123314880D01*
X177985119Y-122314880D01*
X177699404Y-122314880D02*
X177080357Y-122314880D01*
X177413690Y-122695833D01*
X177270833Y-122695833D01*
X177175595Y-122743452D01*
X177127976Y-122791071D01*
X177080357Y-122886309D01*
X177080357Y-123124404D01*
X177127976Y-123219642D01*
X177175595Y-123267261D01*
X177270833Y-123314880D01*
X177556547Y-123314880D01*
X177651785Y-123267261D01*
X177699404Y-123219642D01*
X176175595Y-122314880D02*
X176651785Y-122314880D01*
X176699404Y-122791071D01*
X176651785Y-122743452D01*
X176556547Y-122695833D01*
X176318452Y-122695833D01*
X176223214Y-122743452D01*
X176175595Y-122791071D01*
X176127976Y-122886309D01*
X176127976Y-123124404D01*
X176175595Y-123219642D01*
X176223214Y-123267261D01*
X176318452Y-123314880D01*
X176556547Y-123314880D01*
X176651785Y-123267261D01*
X176699404Y-123219642D01*
X179747023Y-142767261D02*
X179604166Y-142814880D01*
X179366071Y-142814880D01*
X179270833Y-142767261D01*
X179223214Y-142719642D01*
X179175595Y-142624404D01*
X179175595Y-142529166D01*
X179223214Y-142433928D01*
X179270833Y-142386309D01*
X179366071Y-142338690D01*
X179556547Y-142291071D01*
X179651785Y-142243452D01*
X179699404Y-142195833D01*
X179747023Y-142100595D01*
X179747023Y-142005357D01*
X179699404Y-141910119D01*
X179651785Y-141862500D01*
X179556547Y-141814880D01*
X179318452Y-141814880D01*
X179175595Y-141862500D01*
X178842261Y-141814880D02*
X178604166Y-142814880D01*
X178413690Y-142100595D01*
X178223214Y-142814880D01*
X177985119Y-141814880D01*
X177699404Y-141814880D02*
X177080357Y-141814880D01*
X177413690Y-142195833D01*
X177270833Y-142195833D01*
X177175595Y-142243452D01*
X177127976Y-142291071D01*
X177080357Y-142386309D01*
X177080357Y-142624404D01*
X177127976Y-142719642D01*
X177175595Y-142767261D01*
X177270833Y-142814880D01*
X177556547Y-142814880D01*
X177651785Y-142767261D01*
X177699404Y-142719642D01*
X176223214Y-141814880D02*
X176413690Y-141814880D01*
X176508928Y-141862500D01*
X176556547Y-141910119D01*
X176651785Y-142052976D01*
X176699404Y-142243452D01*
X176699404Y-142624404D01*
X176651785Y-142719642D01*
X176604166Y-142767261D01*
X176508928Y-142814880D01*
X176318452Y-142814880D01*
X176223214Y-142767261D01*
X176175595Y-142719642D01*
X176127976Y-142624404D01*
X176127976Y-142386309D01*
X176175595Y-142291071D01*
X176223214Y-142243452D01*
X176318452Y-142195833D01*
X176508928Y-142195833D01*
X176604166Y-142243452D01*
X176651785Y-142291071D01*
X176699404Y-142386309D01*
X199247023Y-120829761D02*
X199104166Y-120877380D01*
X198866071Y-120877380D01*
X198770833Y-120829761D01*
X198723214Y-120782142D01*
X198675595Y-120686904D01*
X198675595Y-120591666D01*
X198723214Y-120496428D01*
X198770833Y-120448809D01*
X198866071Y-120401190D01*
X199056547Y-120353571D01*
X199151785Y-120305952D01*
X199199404Y-120258333D01*
X199247023Y-120163095D01*
X199247023Y-120067857D01*
X199199404Y-119972619D01*
X199151785Y-119925000D01*
X199056547Y-119877380D01*
X198818452Y-119877380D01*
X198675595Y-119925000D01*
X198342261Y-119877380D02*
X198104166Y-120877380D01*
X197913690Y-120163095D01*
X197723214Y-120877380D01*
X197485119Y-119877380D01*
X197199404Y-119877380D02*
X196580357Y-119877380D01*
X196913690Y-120258333D01*
X196770833Y-120258333D01*
X196675595Y-120305952D01*
X196627976Y-120353571D01*
X196580357Y-120448809D01*
X196580357Y-120686904D01*
X196627976Y-120782142D01*
X196675595Y-120829761D01*
X196770833Y-120877380D01*
X197056547Y-120877380D01*
X197151785Y-120829761D01*
X197199404Y-120782142D01*
X196247023Y-119877380D02*
X195580357Y-119877380D01*
X196008928Y-120877380D01*
X199247023Y-140329761D02*
X199104166Y-140377380D01*
X198866071Y-140377380D01*
X198770833Y-140329761D01*
X198723214Y-140282142D01*
X198675595Y-140186904D01*
X198675595Y-140091666D01*
X198723214Y-139996428D01*
X198770833Y-139948809D01*
X198866071Y-139901190D01*
X199056547Y-139853571D01*
X199151785Y-139805952D01*
X199199404Y-139758333D01*
X199247023Y-139663095D01*
X199247023Y-139567857D01*
X199199404Y-139472619D01*
X199151785Y-139425000D01*
X199056547Y-139377380D01*
X198818452Y-139377380D01*
X198675595Y-139425000D01*
X198342261Y-139377380D02*
X198104166Y-140377380D01*
X197913690Y-139663095D01*
X197723214Y-140377380D01*
X197485119Y-139377380D01*
X197199404Y-139377380D02*
X196580357Y-139377380D01*
X196913690Y-139758333D01*
X196770833Y-139758333D01*
X196675595Y-139805952D01*
X196627976Y-139853571D01*
X196580357Y-139948809D01*
X196580357Y-140186904D01*
X196627976Y-140282142D01*
X196675595Y-140329761D01*
X196770833Y-140377380D01*
X197056547Y-140377380D01*
X197151785Y-140329761D01*
X197199404Y-140282142D01*
X196008928Y-139805952D02*
X196104166Y-139758333D01*
X196151785Y-139710714D01*
X196199404Y-139615476D01*
X196199404Y-139567857D01*
X196151785Y-139472619D01*
X196104166Y-139425000D01*
X196008928Y-139377380D01*
X195818452Y-139377380D01*
X195723214Y-139425000D01*
X195675595Y-139472619D01*
X195627976Y-139567857D01*
X195627976Y-139615476D01*
X195675595Y-139710714D01*
X195723214Y-139758333D01*
X195818452Y-139805952D01*
X196008928Y-139805952D01*
X196104166Y-139853571D01*
X196151785Y-139901190D01*
X196199404Y-139996428D01*
X196199404Y-140186904D01*
X196151785Y-140282142D01*
X196104166Y-140329761D01*
X196008928Y-140377380D01*
X195818452Y-140377380D01*
X195723214Y-140329761D01*
X195675595Y-140282142D01*
X195627976Y-140186904D01*
X195627976Y-139996428D01*
X195675595Y-139901190D01*
X195723214Y-139853571D01*
X195818452Y-139805952D01*
X218747023Y-118392261D02*
X218604166Y-118439880D01*
X218366071Y-118439880D01*
X218270833Y-118392261D01*
X218223214Y-118344642D01*
X218175595Y-118249404D01*
X218175595Y-118154166D01*
X218223214Y-118058928D01*
X218270833Y-118011309D01*
X218366071Y-117963690D01*
X218556547Y-117916071D01*
X218651785Y-117868452D01*
X218699404Y-117820833D01*
X218747023Y-117725595D01*
X218747023Y-117630357D01*
X218699404Y-117535119D01*
X218651785Y-117487500D01*
X218556547Y-117439880D01*
X218318452Y-117439880D01*
X218175595Y-117487500D01*
X217842261Y-117439880D02*
X217604166Y-118439880D01*
X217413690Y-117725595D01*
X217223214Y-118439880D01*
X216985119Y-117439880D01*
X216699404Y-117439880D02*
X216080357Y-117439880D01*
X216413690Y-117820833D01*
X216270833Y-117820833D01*
X216175595Y-117868452D01*
X216127976Y-117916071D01*
X216080357Y-118011309D01*
X216080357Y-118249404D01*
X216127976Y-118344642D01*
X216175595Y-118392261D01*
X216270833Y-118439880D01*
X216556547Y-118439880D01*
X216651785Y-118392261D01*
X216699404Y-118344642D01*
X215604166Y-118439880D02*
X215413690Y-118439880D01*
X215318452Y-118392261D01*
X215270833Y-118344642D01*
X215175595Y-118201785D01*
X215127976Y-118011309D01*
X215127976Y-117630357D01*
X215175595Y-117535119D01*
X215223214Y-117487500D01*
X215318452Y-117439880D01*
X215508928Y-117439880D01*
X215604166Y-117487500D01*
X215651785Y-117535119D01*
X215699404Y-117630357D01*
X215699404Y-117868452D01*
X215651785Y-117963690D01*
X215604166Y-118011309D01*
X215508928Y-118058928D01*
X215318452Y-118058928D01*
X215223214Y-118011309D01*
X215175595Y-117963690D01*
X215127976Y-117868452D01*
X218747023Y-137892261D02*
X218604166Y-137939880D01*
X218366071Y-137939880D01*
X218270833Y-137892261D01*
X218223214Y-137844642D01*
X218175595Y-137749404D01*
X218175595Y-137654166D01*
X218223214Y-137558928D01*
X218270833Y-137511309D01*
X218366071Y-137463690D01*
X218556547Y-137416071D01*
X218651785Y-137368452D01*
X218699404Y-137320833D01*
X218747023Y-137225595D01*
X218747023Y-137130357D01*
X218699404Y-137035119D01*
X218651785Y-136987500D01*
X218556547Y-136939880D01*
X218318452Y-136939880D01*
X218175595Y-136987500D01*
X217842261Y-136939880D02*
X217604166Y-137939880D01*
X217413690Y-137225595D01*
X217223214Y-137939880D01*
X216985119Y-136939880D01*
X216175595Y-137273214D02*
X216175595Y-137939880D01*
X216413690Y-136892261D02*
X216651785Y-137606547D01*
X216032738Y-137606547D01*
X215461309Y-136939880D02*
X215366071Y-136939880D01*
X215270833Y-136987500D01*
X215223214Y-137035119D01*
X215175595Y-137130357D01*
X215127976Y-137320833D01*
X215127976Y-137558928D01*
X215175595Y-137749404D01*
X215223214Y-137844642D01*
X215270833Y-137892261D01*
X215366071Y-137939880D01*
X215461309Y-137939880D01*
X215556547Y-137892261D01*
X215604166Y-137844642D01*
X215651785Y-137749404D01*
X215699404Y-137558928D01*
X215699404Y-137320833D01*
X215651785Y-137130357D01*
X215604166Y-137035119D01*
X215556547Y-136987500D01*
X215461309Y-136939880D01*
X238247023Y-57454761D02*
X238104166Y-57502380D01*
X237866071Y-57502380D01*
X237770833Y-57454761D01*
X237723214Y-57407142D01*
X237675595Y-57311904D01*
X237675595Y-57216666D01*
X237723214Y-57121428D01*
X237770833Y-57073809D01*
X237866071Y-57026190D01*
X238056547Y-56978571D01*
X238151785Y-56930952D01*
X238199404Y-56883333D01*
X238247023Y-56788095D01*
X238247023Y-56692857D01*
X238199404Y-56597619D01*
X238151785Y-56550000D01*
X238056547Y-56502380D01*
X237818452Y-56502380D01*
X237675595Y-56550000D01*
X237342261Y-56502380D02*
X237104166Y-57502380D01*
X236913690Y-56788095D01*
X236723214Y-57502380D01*
X236485119Y-56502380D01*
X235675595Y-56835714D02*
X235675595Y-57502380D01*
X235913690Y-56454761D02*
X236151785Y-57169047D01*
X235532738Y-57169047D01*
X234627976Y-57502380D02*
X235199404Y-57502380D01*
X234913690Y-57502380D02*
X234913690Y-56502380D01*
X235008928Y-56645238D01*
X235104166Y-56740476D01*
X235199404Y-56788095D01*
X238247023Y-76954761D02*
X238104166Y-77002380D01*
X237866071Y-77002380D01*
X237770833Y-76954761D01*
X237723214Y-76907142D01*
X237675595Y-76811904D01*
X237675595Y-76716666D01*
X237723214Y-76621428D01*
X237770833Y-76573809D01*
X237866071Y-76526190D01*
X238056547Y-76478571D01*
X238151785Y-76430952D01*
X238199404Y-76383333D01*
X238247023Y-76288095D01*
X238247023Y-76192857D01*
X238199404Y-76097619D01*
X238151785Y-76050000D01*
X238056547Y-76002380D01*
X237818452Y-76002380D01*
X237675595Y-76050000D01*
X237342261Y-76002380D02*
X237104166Y-77002380D01*
X236913690Y-76288095D01*
X236723214Y-77002380D01*
X236485119Y-76002380D01*
X235675595Y-76335714D02*
X235675595Y-77002380D01*
X235913690Y-75954761D02*
X236151785Y-76669047D01*
X235532738Y-76669047D01*
X235199404Y-76097619D02*
X235151785Y-76050000D01*
X235056547Y-76002380D01*
X234818452Y-76002380D01*
X234723214Y-76050000D01*
X234675595Y-76097619D01*
X234627976Y-76192857D01*
X234627976Y-76288095D01*
X234675595Y-76430952D01*
X235247023Y-77002380D01*
X234627976Y-77002380D01*
X238247023Y-96454761D02*
X238104166Y-96502380D01*
X237866071Y-96502380D01*
X237770833Y-96454761D01*
X237723214Y-96407142D01*
X237675595Y-96311904D01*
X237675595Y-96216666D01*
X237723214Y-96121428D01*
X237770833Y-96073809D01*
X237866071Y-96026190D01*
X238056547Y-95978571D01*
X238151785Y-95930952D01*
X238199404Y-95883333D01*
X238247023Y-95788095D01*
X238247023Y-95692857D01*
X238199404Y-95597619D01*
X238151785Y-95550000D01*
X238056547Y-95502380D01*
X237818452Y-95502380D01*
X237675595Y-95550000D01*
X237342261Y-95502380D02*
X237104166Y-96502380D01*
X236913690Y-95788095D01*
X236723214Y-96502380D01*
X236485119Y-95502380D01*
X235675595Y-95835714D02*
X235675595Y-96502380D01*
X235913690Y-95454761D02*
X236151785Y-96169047D01*
X235532738Y-96169047D01*
X235247023Y-95502380D02*
X234627976Y-95502380D01*
X234961309Y-95883333D01*
X234818452Y-95883333D01*
X234723214Y-95930952D01*
X234675595Y-95978571D01*
X234627976Y-96073809D01*
X234627976Y-96311904D01*
X234675595Y-96407142D01*
X234723214Y-96454761D01*
X234818452Y-96502380D01*
X235104166Y-96502380D01*
X235199404Y-96454761D01*
X235247023Y-96407142D01*
X238247023Y-115954761D02*
X238104166Y-116002380D01*
X237866071Y-116002380D01*
X237770833Y-115954761D01*
X237723214Y-115907142D01*
X237675595Y-115811904D01*
X237675595Y-115716666D01*
X237723214Y-115621428D01*
X237770833Y-115573809D01*
X237866071Y-115526190D01*
X238056547Y-115478571D01*
X238151785Y-115430952D01*
X238199404Y-115383333D01*
X238247023Y-115288095D01*
X238247023Y-115192857D01*
X238199404Y-115097619D01*
X238151785Y-115050000D01*
X238056547Y-115002380D01*
X237818452Y-115002380D01*
X237675595Y-115050000D01*
X237342261Y-115002380D02*
X237104166Y-116002380D01*
X236913690Y-115288095D01*
X236723214Y-116002380D01*
X236485119Y-115002380D01*
X235675595Y-115335714D02*
X235675595Y-116002380D01*
X235913690Y-114954761D02*
X236151785Y-115669047D01*
X235532738Y-115669047D01*
X234723214Y-115335714D02*
X234723214Y-116002380D01*
X234961309Y-114954761D02*
X235199404Y-115669047D01*
X234580357Y-115669047D01*
X238247023Y-135454761D02*
X238104166Y-135502380D01*
X237866071Y-135502380D01*
X237770833Y-135454761D01*
X237723214Y-135407142D01*
X237675595Y-135311904D01*
X237675595Y-135216666D01*
X237723214Y-135121428D01*
X237770833Y-135073809D01*
X237866071Y-135026190D01*
X238056547Y-134978571D01*
X238151785Y-134930952D01*
X238199404Y-134883333D01*
X238247023Y-134788095D01*
X238247023Y-134692857D01*
X238199404Y-134597619D01*
X238151785Y-134550000D01*
X238056547Y-134502380D01*
X237818452Y-134502380D01*
X237675595Y-134550000D01*
X237342261Y-134502380D02*
X237104166Y-135502380D01*
X236913690Y-134788095D01*
X236723214Y-135502380D01*
X236485119Y-134502380D01*
X235675595Y-134835714D02*
X235675595Y-135502380D01*
X235913690Y-134454761D02*
X236151785Y-135169047D01*
X235532738Y-135169047D01*
X234675595Y-134502380D02*
X235151785Y-134502380D01*
X235199404Y-134978571D01*
X235151785Y-134930952D01*
X235056547Y-134883333D01*
X234818452Y-134883333D01*
X234723214Y-134930952D01*
X234675595Y-134978571D01*
X234627976Y-135073809D01*
X234627976Y-135311904D01*
X234675595Y-135407142D01*
X234723214Y-135454761D01*
X234818452Y-135502380D01*
X235056547Y-135502380D01*
X235151785Y-135454761D01*
X235199404Y-135407142D01*
X257747023Y-52579761D02*
X257604166Y-52627380D01*
X257366071Y-52627380D01*
X257270833Y-52579761D01*
X257223214Y-52532142D01*
X257175595Y-52436904D01*
X257175595Y-52341666D01*
X257223214Y-52246428D01*
X257270833Y-52198809D01*
X257366071Y-52151190D01*
X257556547Y-52103571D01*
X257651785Y-52055952D01*
X257699404Y-52008333D01*
X257747023Y-51913095D01*
X257747023Y-51817857D01*
X257699404Y-51722619D01*
X257651785Y-51675000D01*
X257556547Y-51627380D01*
X257318452Y-51627380D01*
X257175595Y-51675000D01*
X256842261Y-51627380D02*
X256604166Y-52627380D01*
X256413690Y-51913095D01*
X256223214Y-52627380D01*
X255985119Y-51627380D01*
X255175595Y-51960714D02*
X255175595Y-52627380D01*
X255413690Y-51579761D02*
X255651785Y-52294047D01*
X255032738Y-52294047D01*
X254223214Y-51627380D02*
X254413690Y-51627380D01*
X254508928Y-51675000D01*
X254556547Y-51722619D01*
X254651785Y-51865476D01*
X254699404Y-52055952D01*
X254699404Y-52436904D01*
X254651785Y-52532142D01*
X254604166Y-52579761D01*
X254508928Y-52627380D01*
X254318452Y-52627380D01*
X254223214Y-52579761D01*
X254175595Y-52532142D01*
X254127976Y-52436904D01*
X254127976Y-52198809D01*
X254175595Y-52103571D01*
X254223214Y-52055952D01*
X254318452Y-52008333D01*
X254508928Y-52008333D01*
X254604166Y-52055952D01*
X254651785Y-52103571D01*
X254699404Y-52198809D01*
X257747023Y-72079761D02*
X257604166Y-72127380D01*
X257366071Y-72127380D01*
X257270833Y-72079761D01*
X257223214Y-72032142D01*
X257175595Y-71936904D01*
X257175595Y-71841666D01*
X257223214Y-71746428D01*
X257270833Y-71698809D01*
X257366071Y-71651190D01*
X257556547Y-71603571D01*
X257651785Y-71555952D01*
X257699404Y-71508333D01*
X257747023Y-71413095D01*
X257747023Y-71317857D01*
X257699404Y-71222619D01*
X257651785Y-71175000D01*
X257556547Y-71127380D01*
X257318452Y-71127380D01*
X257175595Y-71175000D01*
X256842261Y-71127380D02*
X256604166Y-72127380D01*
X256413690Y-71413095D01*
X256223214Y-72127380D01*
X255985119Y-71127380D01*
X255175595Y-71460714D02*
X255175595Y-72127380D01*
X255413690Y-71079761D02*
X255651785Y-71794047D01*
X255032738Y-71794047D01*
X254747023Y-71127380D02*
X254080357Y-71127380D01*
X254508928Y-72127380D01*
X257747023Y-91579761D02*
X257604166Y-91627380D01*
X257366071Y-91627380D01*
X257270833Y-91579761D01*
X257223214Y-91532142D01*
X257175595Y-91436904D01*
X257175595Y-91341666D01*
X257223214Y-91246428D01*
X257270833Y-91198809D01*
X257366071Y-91151190D01*
X257556547Y-91103571D01*
X257651785Y-91055952D01*
X257699404Y-91008333D01*
X257747023Y-90913095D01*
X257747023Y-90817857D01*
X257699404Y-90722619D01*
X257651785Y-90675000D01*
X257556547Y-90627380D01*
X257318452Y-90627380D01*
X257175595Y-90675000D01*
X256842261Y-90627380D02*
X256604166Y-91627380D01*
X256413690Y-90913095D01*
X256223214Y-91627380D01*
X255985119Y-90627380D01*
X255175595Y-90960714D02*
X255175595Y-91627380D01*
X255413690Y-90579761D02*
X255651785Y-91294047D01*
X255032738Y-91294047D01*
X254508928Y-91055952D02*
X254604166Y-91008333D01*
X254651785Y-90960714D01*
X254699404Y-90865476D01*
X254699404Y-90817857D01*
X254651785Y-90722619D01*
X254604166Y-90675000D01*
X254508928Y-90627380D01*
X254318452Y-90627380D01*
X254223214Y-90675000D01*
X254175595Y-90722619D01*
X254127976Y-90817857D01*
X254127976Y-90865476D01*
X254175595Y-90960714D01*
X254223214Y-91008333D01*
X254318452Y-91055952D01*
X254508928Y-91055952D01*
X254604166Y-91103571D01*
X254651785Y-91151190D01*
X254699404Y-91246428D01*
X254699404Y-91436904D01*
X254651785Y-91532142D01*
X254604166Y-91579761D01*
X254508928Y-91627380D01*
X254318452Y-91627380D01*
X254223214Y-91579761D01*
X254175595Y-91532142D01*
X254127976Y-91436904D01*
X254127976Y-91246428D01*
X254175595Y-91151190D01*
X254223214Y-91103571D01*
X254318452Y-91055952D01*
X257747023Y-111079761D02*
X257604166Y-111127380D01*
X257366071Y-111127380D01*
X257270833Y-111079761D01*
X257223214Y-111032142D01*
X257175595Y-110936904D01*
X257175595Y-110841666D01*
X257223214Y-110746428D01*
X257270833Y-110698809D01*
X257366071Y-110651190D01*
X257556547Y-110603571D01*
X257651785Y-110555952D01*
X257699404Y-110508333D01*
X257747023Y-110413095D01*
X257747023Y-110317857D01*
X257699404Y-110222619D01*
X257651785Y-110175000D01*
X257556547Y-110127380D01*
X257318452Y-110127380D01*
X257175595Y-110175000D01*
X256842261Y-110127380D02*
X256604166Y-111127380D01*
X256413690Y-110413095D01*
X256223214Y-111127380D01*
X255985119Y-110127380D01*
X255175595Y-110460714D02*
X255175595Y-111127380D01*
X255413690Y-110079761D02*
X255651785Y-110794047D01*
X255032738Y-110794047D01*
X254604166Y-111127380D02*
X254413690Y-111127380D01*
X254318452Y-111079761D01*
X254270833Y-111032142D01*
X254175595Y-110889285D01*
X254127976Y-110698809D01*
X254127976Y-110317857D01*
X254175595Y-110222619D01*
X254223214Y-110175000D01*
X254318452Y-110127380D01*
X254508928Y-110127380D01*
X254604166Y-110175000D01*
X254651785Y-110222619D01*
X254699404Y-110317857D01*
X254699404Y-110555952D01*
X254651785Y-110651190D01*
X254604166Y-110698809D01*
X254508928Y-110746428D01*
X254318452Y-110746428D01*
X254223214Y-110698809D01*
X254175595Y-110651190D01*
X254127976Y-110555952D01*
X257747023Y-130579761D02*
X257604166Y-130627380D01*
X257366071Y-130627380D01*
X257270833Y-130579761D01*
X257223214Y-130532142D01*
X257175595Y-130436904D01*
X257175595Y-130341666D01*
X257223214Y-130246428D01*
X257270833Y-130198809D01*
X257366071Y-130151190D01*
X257556547Y-130103571D01*
X257651785Y-130055952D01*
X257699404Y-130008333D01*
X257747023Y-129913095D01*
X257747023Y-129817857D01*
X257699404Y-129722619D01*
X257651785Y-129675000D01*
X257556547Y-129627380D01*
X257318452Y-129627380D01*
X257175595Y-129675000D01*
X256842261Y-129627380D02*
X256604166Y-130627380D01*
X256413690Y-129913095D01*
X256223214Y-130627380D01*
X255985119Y-129627380D01*
X255127976Y-129627380D02*
X255604166Y-129627380D01*
X255651785Y-130103571D01*
X255604166Y-130055952D01*
X255508928Y-130008333D01*
X255270833Y-130008333D01*
X255175595Y-130055952D01*
X255127976Y-130103571D01*
X255080357Y-130198809D01*
X255080357Y-130436904D01*
X255127976Y-130532142D01*
X255175595Y-130579761D01*
X255270833Y-130627380D01*
X255508928Y-130627380D01*
X255604166Y-130579761D01*
X255651785Y-130532142D01*
X254461309Y-129627380D02*
X254366071Y-129627380D01*
X254270833Y-129675000D01*
X254223214Y-129722619D01*
X254175595Y-129817857D01*
X254127976Y-130008333D01*
X254127976Y-130246428D01*
X254175595Y-130436904D01*
X254223214Y-130532142D01*
X254270833Y-130579761D01*
X254366071Y-130627380D01*
X254461309Y-130627380D01*
X254556547Y-130579761D01*
X254604166Y-130532142D01*
X254651785Y-130436904D01*
X254699404Y-130246428D01*
X254699404Y-130008333D01*
X254651785Y-129817857D01*
X254604166Y-129722619D01*
X254556547Y-129675000D01*
X254461309Y-129627380D01*
X277247023Y-50142261D02*
X277104166Y-50189880D01*
X276866071Y-50189880D01*
X276770833Y-50142261D01*
X276723214Y-50094642D01*
X276675595Y-49999404D01*
X276675595Y-49904166D01*
X276723214Y-49808928D01*
X276770833Y-49761309D01*
X276866071Y-49713690D01*
X277056547Y-49666071D01*
X277151785Y-49618452D01*
X277199404Y-49570833D01*
X277247023Y-49475595D01*
X277247023Y-49380357D01*
X277199404Y-49285119D01*
X277151785Y-49237500D01*
X277056547Y-49189880D01*
X276818452Y-49189880D01*
X276675595Y-49237500D01*
X276342261Y-49189880D02*
X276104166Y-50189880D01*
X275913690Y-49475595D01*
X275723214Y-50189880D01*
X275485119Y-49189880D01*
X274627976Y-49189880D02*
X275104166Y-49189880D01*
X275151785Y-49666071D01*
X275104166Y-49618452D01*
X275008928Y-49570833D01*
X274770833Y-49570833D01*
X274675595Y-49618452D01*
X274627976Y-49666071D01*
X274580357Y-49761309D01*
X274580357Y-49999404D01*
X274627976Y-50094642D01*
X274675595Y-50142261D01*
X274770833Y-50189880D01*
X275008928Y-50189880D01*
X275104166Y-50142261D01*
X275151785Y-50094642D01*
X273627976Y-50189880D02*
X274199404Y-50189880D01*
X273913690Y-50189880D02*
X273913690Y-49189880D01*
X274008928Y-49332738D01*
X274104166Y-49427976D01*
X274199404Y-49475595D01*
X277247023Y-69642261D02*
X277104166Y-69689880D01*
X276866071Y-69689880D01*
X276770833Y-69642261D01*
X276723214Y-69594642D01*
X276675595Y-69499404D01*
X276675595Y-69404166D01*
X276723214Y-69308928D01*
X276770833Y-69261309D01*
X276866071Y-69213690D01*
X277056547Y-69166071D01*
X277151785Y-69118452D01*
X277199404Y-69070833D01*
X277247023Y-68975595D01*
X277247023Y-68880357D01*
X277199404Y-68785119D01*
X277151785Y-68737500D01*
X277056547Y-68689880D01*
X276818452Y-68689880D01*
X276675595Y-68737500D01*
X276342261Y-68689880D02*
X276104166Y-69689880D01*
X275913690Y-68975595D01*
X275723214Y-69689880D01*
X275485119Y-68689880D01*
X274627976Y-68689880D02*
X275104166Y-68689880D01*
X275151785Y-69166071D01*
X275104166Y-69118452D01*
X275008928Y-69070833D01*
X274770833Y-69070833D01*
X274675595Y-69118452D01*
X274627976Y-69166071D01*
X274580357Y-69261309D01*
X274580357Y-69499404D01*
X274627976Y-69594642D01*
X274675595Y-69642261D01*
X274770833Y-69689880D01*
X275008928Y-69689880D01*
X275104166Y-69642261D01*
X275151785Y-69594642D01*
X274199404Y-68785119D02*
X274151785Y-68737500D01*
X274056547Y-68689880D01*
X273818452Y-68689880D01*
X273723214Y-68737500D01*
X273675595Y-68785119D01*
X273627976Y-68880357D01*
X273627976Y-68975595D01*
X273675595Y-69118452D01*
X274247023Y-69689880D01*
X273627976Y-69689880D01*
X277247023Y-89142261D02*
X277104166Y-89189880D01*
X276866071Y-89189880D01*
X276770833Y-89142261D01*
X276723214Y-89094642D01*
X276675595Y-88999404D01*
X276675595Y-88904166D01*
X276723214Y-88808928D01*
X276770833Y-88761309D01*
X276866071Y-88713690D01*
X277056547Y-88666071D01*
X277151785Y-88618452D01*
X277199404Y-88570833D01*
X277247023Y-88475595D01*
X277247023Y-88380357D01*
X277199404Y-88285119D01*
X277151785Y-88237500D01*
X277056547Y-88189880D01*
X276818452Y-88189880D01*
X276675595Y-88237500D01*
X276342261Y-88189880D02*
X276104166Y-89189880D01*
X275913690Y-88475595D01*
X275723214Y-89189880D01*
X275485119Y-88189880D01*
X274627976Y-88189880D02*
X275104166Y-88189880D01*
X275151785Y-88666071D01*
X275104166Y-88618452D01*
X275008928Y-88570833D01*
X274770833Y-88570833D01*
X274675595Y-88618452D01*
X274627976Y-88666071D01*
X274580357Y-88761309D01*
X274580357Y-88999404D01*
X274627976Y-89094642D01*
X274675595Y-89142261D01*
X274770833Y-89189880D01*
X275008928Y-89189880D01*
X275104166Y-89142261D01*
X275151785Y-89094642D01*
X274247023Y-88189880D02*
X273627976Y-88189880D01*
X273961309Y-88570833D01*
X273818452Y-88570833D01*
X273723214Y-88618452D01*
X273675595Y-88666071D01*
X273627976Y-88761309D01*
X273627976Y-88999404D01*
X273675595Y-89094642D01*
X273723214Y-89142261D01*
X273818452Y-89189880D01*
X274104166Y-89189880D01*
X274199404Y-89142261D01*
X274247023Y-89094642D01*
X277247023Y-108642261D02*
X277104166Y-108689880D01*
X276866071Y-108689880D01*
X276770833Y-108642261D01*
X276723214Y-108594642D01*
X276675595Y-108499404D01*
X276675595Y-108404166D01*
X276723214Y-108308928D01*
X276770833Y-108261309D01*
X276866071Y-108213690D01*
X277056547Y-108166071D01*
X277151785Y-108118452D01*
X277199404Y-108070833D01*
X277247023Y-107975595D01*
X277247023Y-107880357D01*
X277199404Y-107785119D01*
X277151785Y-107737500D01*
X277056547Y-107689880D01*
X276818452Y-107689880D01*
X276675595Y-107737500D01*
X276342261Y-107689880D02*
X276104166Y-108689880D01*
X275913690Y-107975595D01*
X275723214Y-108689880D01*
X275485119Y-107689880D01*
X274627976Y-107689880D02*
X275104166Y-107689880D01*
X275151785Y-108166071D01*
X275104166Y-108118452D01*
X275008928Y-108070833D01*
X274770833Y-108070833D01*
X274675595Y-108118452D01*
X274627976Y-108166071D01*
X274580357Y-108261309D01*
X274580357Y-108499404D01*
X274627976Y-108594642D01*
X274675595Y-108642261D01*
X274770833Y-108689880D01*
X275008928Y-108689880D01*
X275104166Y-108642261D01*
X275151785Y-108594642D01*
X273723214Y-108023214D02*
X273723214Y-108689880D01*
X273961309Y-107642261D02*
X274199404Y-108356547D01*
X273580357Y-108356547D01*
X277247023Y-128142261D02*
X277104166Y-128189880D01*
X276866071Y-128189880D01*
X276770833Y-128142261D01*
X276723214Y-128094642D01*
X276675595Y-127999404D01*
X276675595Y-127904166D01*
X276723214Y-127808928D01*
X276770833Y-127761309D01*
X276866071Y-127713690D01*
X277056547Y-127666071D01*
X277151785Y-127618452D01*
X277199404Y-127570833D01*
X277247023Y-127475595D01*
X277247023Y-127380357D01*
X277199404Y-127285119D01*
X277151785Y-127237500D01*
X277056547Y-127189880D01*
X276818452Y-127189880D01*
X276675595Y-127237500D01*
X276342261Y-127189880D02*
X276104166Y-128189880D01*
X275913690Y-127475595D01*
X275723214Y-128189880D01*
X275485119Y-127189880D01*
X274627976Y-127189880D02*
X275104166Y-127189880D01*
X275151785Y-127666071D01*
X275104166Y-127618452D01*
X275008928Y-127570833D01*
X274770833Y-127570833D01*
X274675595Y-127618452D01*
X274627976Y-127666071D01*
X274580357Y-127761309D01*
X274580357Y-127999404D01*
X274627976Y-128094642D01*
X274675595Y-128142261D01*
X274770833Y-128189880D01*
X275008928Y-128189880D01*
X275104166Y-128142261D01*
X275151785Y-128094642D01*
X273675595Y-127189880D02*
X274151785Y-127189880D01*
X274199404Y-127666071D01*
X274151785Y-127618452D01*
X274056547Y-127570833D01*
X273818452Y-127570833D01*
X273723214Y-127618452D01*
X273675595Y-127666071D01*
X273627976Y-127761309D01*
X273627976Y-127999404D01*
X273675595Y-128094642D01*
X273723214Y-128142261D01*
X273818452Y-128189880D01*
X274056547Y-128189880D01*
X274151785Y-128142261D01*
X274199404Y-128094642D01*
X296747023Y-52579761D02*
X296604166Y-52627380D01*
X296366071Y-52627380D01*
X296270833Y-52579761D01*
X296223214Y-52532142D01*
X296175595Y-52436904D01*
X296175595Y-52341666D01*
X296223214Y-52246428D01*
X296270833Y-52198809D01*
X296366071Y-52151190D01*
X296556547Y-52103571D01*
X296651785Y-52055952D01*
X296699404Y-52008333D01*
X296747023Y-51913095D01*
X296747023Y-51817857D01*
X296699404Y-51722619D01*
X296651785Y-51675000D01*
X296556547Y-51627380D01*
X296318452Y-51627380D01*
X296175595Y-51675000D01*
X295842261Y-51627380D02*
X295604166Y-52627380D01*
X295413690Y-51913095D01*
X295223214Y-52627380D01*
X294985119Y-51627380D01*
X294127976Y-51627380D02*
X294604166Y-51627380D01*
X294651785Y-52103571D01*
X294604166Y-52055952D01*
X294508928Y-52008333D01*
X294270833Y-52008333D01*
X294175595Y-52055952D01*
X294127976Y-52103571D01*
X294080357Y-52198809D01*
X294080357Y-52436904D01*
X294127976Y-52532142D01*
X294175595Y-52579761D01*
X294270833Y-52627380D01*
X294508928Y-52627380D01*
X294604166Y-52579761D01*
X294651785Y-52532142D01*
X293223214Y-51627380D02*
X293413690Y-51627380D01*
X293508928Y-51675000D01*
X293556547Y-51722619D01*
X293651785Y-51865476D01*
X293699404Y-52055952D01*
X293699404Y-52436904D01*
X293651785Y-52532142D01*
X293604166Y-52579761D01*
X293508928Y-52627380D01*
X293318452Y-52627380D01*
X293223214Y-52579761D01*
X293175595Y-52532142D01*
X293127976Y-52436904D01*
X293127976Y-52198809D01*
X293175595Y-52103571D01*
X293223214Y-52055952D01*
X293318452Y-52008333D01*
X293508928Y-52008333D01*
X293604166Y-52055952D01*
X293651785Y-52103571D01*
X293699404Y-52198809D01*
X296747023Y-72079761D02*
X296604166Y-72127380D01*
X296366071Y-72127380D01*
X296270833Y-72079761D01*
X296223214Y-72032142D01*
X296175595Y-71936904D01*
X296175595Y-71841666D01*
X296223214Y-71746428D01*
X296270833Y-71698809D01*
X296366071Y-71651190D01*
X296556547Y-71603571D01*
X296651785Y-71555952D01*
X296699404Y-71508333D01*
X296747023Y-71413095D01*
X296747023Y-71317857D01*
X296699404Y-71222619D01*
X296651785Y-71175000D01*
X296556547Y-71127380D01*
X296318452Y-71127380D01*
X296175595Y-71175000D01*
X295842261Y-71127380D02*
X295604166Y-72127380D01*
X295413690Y-71413095D01*
X295223214Y-72127380D01*
X294985119Y-71127380D01*
X294127976Y-71127380D02*
X294604166Y-71127380D01*
X294651785Y-71603571D01*
X294604166Y-71555952D01*
X294508928Y-71508333D01*
X294270833Y-71508333D01*
X294175595Y-71555952D01*
X294127976Y-71603571D01*
X294080357Y-71698809D01*
X294080357Y-71936904D01*
X294127976Y-72032142D01*
X294175595Y-72079761D01*
X294270833Y-72127380D01*
X294508928Y-72127380D01*
X294604166Y-72079761D01*
X294651785Y-72032142D01*
X293747023Y-71127380D02*
X293080357Y-71127380D01*
X293508928Y-72127380D01*
X296747023Y-91579761D02*
X296604166Y-91627380D01*
X296366071Y-91627380D01*
X296270833Y-91579761D01*
X296223214Y-91532142D01*
X296175595Y-91436904D01*
X296175595Y-91341666D01*
X296223214Y-91246428D01*
X296270833Y-91198809D01*
X296366071Y-91151190D01*
X296556547Y-91103571D01*
X296651785Y-91055952D01*
X296699404Y-91008333D01*
X296747023Y-90913095D01*
X296747023Y-90817857D01*
X296699404Y-90722619D01*
X296651785Y-90675000D01*
X296556547Y-90627380D01*
X296318452Y-90627380D01*
X296175595Y-90675000D01*
X295842261Y-90627380D02*
X295604166Y-91627380D01*
X295413690Y-90913095D01*
X295223214Y-91627380D01*
X294985119Y-90627380D01*
X294127976Y-90627380D02*
X294604166Y-90627380D01*
X294651785Y-91103571D01*
X294604166Y-91055952D01*
X294508928Y-91008333D01*
X294270833Y-91008333D01*
X294175595Y-91055952D01*
X294127976Y-91103571D01*
X294080357Y-91198809D01*
X294080357Y-91436904D01*
X294127976Y-91532142D01*
X294175595Y-91579761D01*
X294270833Y-91627380D01*
X294508928Y-91627380D01*
X294604166Y-91579761D01*
X294651785Y-91532142D01*
X293508928Y-91055952D02*
X293604166Y-91008333D01*
X293651785Y-90960714D01*
X293699404Y-90865476D01*
X293699404Y-90817857D01*
X293651785Y-90722619D01*
X293604166Y-90675000D01*
X293508928Y-90627380D01*
X293318452Y-90627380D01*
X293223214Y-90675000D01*
X293175595Y-90722619D01*
X293127976Y-90817857D01*
X293127976Y-90865476D01*
X293175595Y-90960714D01*
X293223214Y-91008333D01*
X293318452Y-91055952D01*
X293508928Y-91055952D01*
X293604166Y-91103571D01*
X293651785Y-91151190D01*
X293699404Y-91246428D01*
X293699404Y-91436904D01*
X293651785Y-91532142D01*
X293604166Y-91579761D01*
X293508928Y-91627380D01*
X293318452Y-91627380D01*
X293223214Y-91579761D01*
X293175595Y-91532142D01*
X293127976Y-91436904D01*
X293127976Y-91246428D01*
X293175595Y-91151190D01*
X293223214Y-91103571D01*
X293318452Y-91055952D01*
X296747023Y-111079761D02*
X296604166Y-111127380D01*
X296366071Y-111127380D01*
X296270833Y-111079761D01*
X296223214Y-111032142D01*
X296175595Y-110936904D01*
X296175595Y-110841666D01*
X296223214Y-110746428D01*
X296270833Y-110698809D01*
X296366071Y-110651190D01*
X296556547Y-110603571D01*
X296651785Y-110555952D01*
X296699404Y-110508333D01*
X296747023Y-110413095D01*
X296747023Y-110317857D01*
X296699404Y-110222619D01*
X296651785Y-110175000D01*
X296556547Y-110127380D01*
X296318452Y-110127380D01*
X296175595Y-110175000D01*
X295842261Y-110127380D02*
X295604166Y-111127380D01*
X295413690Y-110413095D01*
X295223214Y-111127380D01*
X294985119Y-110127380D01*
X294127976Y-110127380D02*
X294604166Y-110127380D01*
X294651785Y-110603571D01*
X294604166Y-110555952D01*
X294508928Y-110508333D01*
X294270833Y-110508333D01*
X294175595Y-110555952D01*
X294127976Y-110603571D01*
X294080357Y-110698809D01*
X294080357Y-110936904D01*
X294127976Y-111032142D01*
X294175595Y-111079761D01*
X294270833Y-111127380D01*
X294508928Y-111127380D01*
X294604166Y-111079761D01*
X294651785Y-111032142D01*
X293604166Y-111127380D02*
X293413690Y-111127380D01*
X293318452Y-111079761D01*
X293270833Y-111032142D01*
X293175595Y-110889285D01*
X293127976Y-110698809D01*
X293127976Y-110317857D01*
X293175595Y-110222619D01*
X293223214Y-110175000D01*
X293318452Y-110127380D01*
X293508928Y-110127380D01*
X293604166Y-110175000D01*
X293651785Y-110222619D01*
X293699404Y-110317857D01*
X293699404Y-110555952D01*
X293651785Y-110651190D01*
X293604166Y-110698809D01*
X293508928Y-110746428D01*
X293318452Y-110746428D01*
X293223214Y-110698809D01*
X293175595Y-110651190D01*
X293127976Y-110555952D01*
X296747023Y-130579761D02*
X296604166Y-130627380D01*
X296366071Y-130627380D01*
X296270833Y-130579761D01*
X296223214Y-130532142D01*
X296175595Y-130436904D01*
X296175595Y-130341666D01*
X296223214Y-130246428D01*
X296270833Y-130198809D01*
X296366071Y-130151190D01*
X296556547Y-130103571D01*
X296651785Y-130055952D01*
X296699404Y-130008333D01*
X296747023Y-129913095D01*
X296747023Y-129817857D01*
X296699404Y-129722619D01*
X296651785Y-129675000D01*
X296556547Y-129627380D01*
X296318452Y-129627380D01*
X296175595Y-129675000D01*
X295842261Y-129627380D02*
X295604166Y-130627380D01*
X295413690Y-129913095D01*
X295223214Y-130627380D01*
X294985119Y-129627380D01*
X294175595Y-129627380D02*
X294366071Y-129627380D01*
X294461309Y-129675000D01*
X294508928Y-129722619D01*
X294604166Y-129865476D01*
X294651785Y-130055952D01*
X294651785Y-130436904D01*
X294604166Y-130532142D01*
X294556547Y-130579761D01*
X294461309Y-130627380D01*
X294270833Y-130627380D01*
X294175595Y-130579761D01*
X294127976Y-130532142D01*
X294080357Y-130436904D01*
X294080357Y-130198809D01*
X294127976Y-130103571D01*
X294175595Y-130055952D01*
X294270833Y-130008333D01*
X294461309Y-130008333D01*
X294556547Y-130055952D01*
X294604166Y-130103571D01*
X294651785Y-130198809D01*
X293461309Y-129627380D02*
X293366071Y-129627380D01*
X293270833Y-129675000D01*
X293223214Y-129722619D01*
X293175595Y-129817857D01*
X293127976Y-130008333D01*
X293127976Y-130246428D01*
X293175595Y-130436904D01*
X293223214Y-130532142D01*
X293270833Y-130579761D01*
X293366071Y-130627380D01*
X293461309Y-130627380D01*
X293556547Y-130579761D01*
X293604166Y-130532142D01*
X293651785Y-130436904D01*
X293699404Y-130246428D01*
X293699404Y-130008333D01*
X293651785Y-129817857D01*
X293604166Y-129722619D01*
X293556547Y-129675000D01*
X293461309Y-129627380D01*
X316247023Y-57454761D02*
X316104166Y-57502380D01*
X315866071Y-57502380D01*
X315770833Y-57454761D01*
X315723214Y-57407142D01*
X315675595Y-57311904D01*
X315675595Y-57216666D01*
X315723214Y-57121428D01*
X315770833Y-57073809D01*
X315866071Y-57026190D01*
X316056547Y-56978571D01*
X316151785Y-56930952D01*
X316199404Y-56883333D01*
X316247023Y-56788095D01*
X316247023Y-56692857D01*
X316199404Y-56597619D01*
X316151785Y-56550000D01*
X316056547Y-56502380D01*
X315818452Y-56502380D01*
X315675595Y-56550000D01*
X315342261Y-56502380D02*
X315104166Y-57502380D01*
X314913690Y-56788095D01*
X314723214Y-57502380D01*
X314485119Y-56502380D01*
X313675595Y-56502380D02*
X313866071Y-56502380D01*
X313961309Y-56550000D01*
X314008928Y-56597619D01*
X314104166Y-56740476D01*
X314151785Y-56930952D01*
X314151785Y-57311904D01*
X314104166Y-57407142D01*
X314056547Y-57454761D01*
X313961309Y-57502380D01*
X313770833Y-57502380D01*
X313675595Y-57454761D01*
X313627976Y-57407142D01*
X313580357Y-57311904D01*
X313580357Y-57073809D01*
X313627976Y-56978571D01*
X313675595Y-56930952D01*
X313770833Y-56883333D01*
X313961309Y-56883333D01*
X314056547Y-56930952D01*
X314104166Y-56978571D01*
X314151785Y-57073809D01*
X312627976Y-57502380D02*
X313199404Y-57502380D01*
X312913690Y-57502380D02*
X312913690Y-56502380D01*
X313008928Y-56645238D01*
X313104166Y-56740476D01*
X313199404Y-56788095D01*
X316247023Y-96454761D02*
X316104166Y-96502380D01*
X315866071Y-96502380D01*
X315770833Y-96454761D01*
X315723214Y-96407142D01*
X315675595Y-96311904D01*
X315675595Y-96216666D01*
X315723214Y-96121428D01*
X315770833Y-96073809D01*
X315866071Y-96026190D01*
X316056547Y-95978571D01*
X316151785Y-95930952D01*
X316199404Y-95883333D01*
X316247023Y-95788095D01*
X316247023Y-95692857D01*
X316199404Y-95597619D01*
X316151785Y-95550000D01*
X316056547Y-95502380D01*
X315818452Y-95502380D01*
X315675595Y-95550000D01*
X315342261Y-95502380D02*
X315104166Y-96502380D01*
X314913690Y-95788095D01*
X314723214Y-96502380D01*
X314485119Y-95502380D01*
X313675595Y-95502380D02*
X313866071Y-95502380D01*
X313961309Y-95550000D01*
X314008928Y-95597619D01*
X314104166Y-95740476D01*
X314151785Y-95930952D01*
X314151785Y-96311904D01*
X314104166Y-96407142D01*
X314056547Y-96454761D01*
X313961309Y-96502380D01*
X313770833Y-96502380D01*
X313675595Y-96454761D01*
X313627976Y-96407142D01*
X313580357Y-96311904D01*
X313580357Y-96073809D01*
X313627976Y-95978571D01*
X313675595Y-95930952D01*
X313770833Y-95883333D01*
X313961309Y-95883333D01*
X314056547Y-95930952D01*
X314104166Y-95978571D01*
X314151785Y-96073809D01*
X313247023Y-95502380D02*
X312627976Y-95502380D01*
X312961309Y-95883333D01*
X312818452Y-95883333D01*
X312723214Y-95930952D01*
X312675595Y-95978571D01*
X312627976Y-96073809D01*
X312627976Y-96311904D01*
X312675595Y-96407142D01*
X312723214Y-96454761D01*
X312818452Y-96502380D01*
X313104166Y-96502380D01*
X313199404Y-96454761D01*
X313247023Y-96407142D01*
X316247023Y-115954761D02*
X316104166Y-116002380D01*
X315866071Y-116002380D01*
X315770833Y-115954761D01*
X315723214Y-115907142D01*
X315675595Y-115811904D01*
X315675595Y-115716666D01*
X315723214Y-115621428D01*
X315770833Y-115573809D01*
X315866071Y-115526190D01*
X316056547Y-115478571D01*
X316151785Y-115430952D01*
X316199404Y-115383333D01*
X316247023Y-115288095D01*
X316247023Y-115192857D01*
X316199404Y-115097619D01*
X316151785Y-115050000D01*
X316056547Y-115002380D01*
X315818452Y-115002380D01*
X315675595Y-115050000D01*
X315342261Y-115002380D02*
X315104166Y-116002380D01*
X314913690Y-115288095D01*
X314723214Y-116002380D01*
X314485119Y-115002380D01*
X313675595Y-115002380D02*
X313866071Y-115002380D01*
X313961309Y-115050000D01*
X314008928Y-115097619D01*
X314104166Y-115240476D01*
X314151785Y-115430952D01*
X314151785Y-115811904D01*
X314104166Y-115907142D01*
X314056547Y-115954761D01*
X313961309Y-116002380D01*
X313770833Y-116002380D01*
X313675595Y-115954761D01*
X313627976Y-115907142D01*
X313580357Y-115811904D01*
X313580357Y-115573809D01*
X313627976Y-115478571D01*
X313675595Y-115430952D01*
X313770833Y-115383333D01*
X313961309Y-115383333D01*
X314056547Y-115430952D01*
X314104166Y-115478571D01*
X314151785Y-115573809D01*
X312723214Y-115335714D02*
X312723214Y-116002380D01*
X312961309Y-114954761D02*
X313199404Y-115669047D01*
X312580357Y-115669047D01*
X316247023Y-135454761D02*
X316104166Y-135502380D01*
X315866071Y-135502380D01*
X315770833Y-135454761D01*
X315723214Y-135407142D01*
X315675595Y-135311904D01*
X315675595Y-135216666D01*
X315723214Y-135121428D01*
X315770833Y-135073809D01*
X315866071Y-135026190D01*
X316056547Y-134978571D01*
X316151785Y-134930952D01*
X316199404Y-134883333D01*
X316247023Y-134788095D01*
X316247023Y-134692857D01*
X316199404Y-134597619D01*
X316151785Y-134550000D01*
X316056547Y-134502380D01*
X315818452Y-134502380D01*
X315675595Y-134550000D01*
X315342261Y-134502380D02*
X315104166Y-135502380D01*
X314913690Y-134788095D01*
X314723214Y-135502380D01*
X314485119Y-134502380D01*
X313675595Y-134502380D02*
X313866071Y-134502380D01*
X313961309Y-134550000D01*
X314008928Y-134597619D01*
X314104166Y-134740476D01*
X314151785Y-134930952D01*
X314151785Y-135311904D01*
X314104166Y-135407142D01*
X314056547Y-135454761D01*
X313961309Y-135502380D01*
X313770833Y-135502380D01*
X313675595Y-135454761D01*
X313627976Y-135407142D01*
X313580357Y-135311904D01*
X313580357Y-135073809D01*
X313627976Y-134978571D01*
X313675595Y-134930952D01*
X313770833Y-134883333D01*
X313961309Y-134883333D01*
X314056547Y-134930952D01*
X314104166Y-134978571D01*
X314151785Y-135073809D01*
X312675595Y-134502380D02*
X313151785Y-134502380D01*
X313199404Y-134978571D01*
X313151785Y-134930952D01*
X313056547Y-134883333D01*
X312818452Y-134883333D01*
X312723214Y-134930952D01*
X312675595Y-134978571D01*
X312627976Y-135073809D01*
X312627976Y-135311904D01*
X312675595Y-135407142D01*
X312723214Y-135454761D01*
X312818452Y-135502380D01*
X313056547Y-135502380D01*
X313151785Y-135454761D01*
X313199404Y-135407142D01*
X335747023Y-59892261D02*
X335604166Y-59939880D01*
X335366071Y-59939880D01*
X335270833Y-59892261D01*
X335223214Y-59844642D01*
X335175595Y-59749404D01*
X335175595Y-59654166D01*
X335223214Y-59558928D01*
X335270833Y-59511309D01*
X335366071Y-59463690D01*
X335556547Y-59416071D01*
X335651785Y-59368452D01*
X335699404Y-59320833D01*
X335747023Y-59225595D01*
X335747023Y-59130357D01*
X335699404Y-59035119D01*
X335651785Y-58987500D01*
X335556547Y-58939880D01*
X335318452Y-58939880D01*
X335175595Y-58987500D01*
X334842261Y-58939880D02*
X334604166Y-59939880D01*
X334413690Y-59225595D01*
X334223214Y-59939880D01*
X333985119Y-58939880D01*
X333175595Y-58939880D02*
X333366071Y-58939880D01*
X333461309Y-58987500D01*
X333508928Y-59035119D01*
X333604166Y-59177976D01*
X333651785Y-59368452D01*
X333651785Y-59749404D01*
X333604166Y-59844642D01*
X333556547Y-59892261D01*
X333461309Y-59939880D01*
X333270833Y-59939880D01*
X333175595Y-59892261D01*
X333127976Y-59844642D01*
X333080357Y-59749404D01*
X333080357Y-59511309D01*
X333127976Y-59416071D01*
X333175595Y-59368452D01*
X333270833Y-59320833D01*
X333461309Y-59320833D01*
X333556547Y-59368452D01*
X333604166Y-59416071D01*
X333651785Y-59511309D01*
X332223214Y-58939880D02*
X332413690Y-58939880D01*
X332508928Y-58987500D01*
X332556547Y-59035119D01*
X332651785Y-59177976D01*
X332699404Y-59368452D01*
X332699404Y-59749404D01*
X332651785Y-59844642D01*
X332604166Y-59892261D01*
X332508928Y-59939880D01*
X332318452Y-59939880D01*
X332223214Y-59892261D01*
X332175595Y-59844642D01*
X332127976Y-59749404D01*
X332127976Y-59511309D01*
X332175595Y-59416071D01*
X332223214Y-59368452D01*
X332318452Y-59320833D01*
X332508928Y-59320833D01*
X332604166Y-59368452D01*
X332651785Y-59416071D01*
X332699404Y-59511309D01*
X335747023Y-79392261D02*
X335604166Y-79439880D01*
X335366071Y-79439880D01*
X335270833Y-79392261D01*
X335223214Y-79344642D01*
X335175595Y-79249404D01*
X335175595Y-79154166D01*
X335223214Y-79058928D01*
X335270833Y-79011309D01*
X335366071Y-78963690D01*
X335556547Y-78916071D01*
X335651785Y-78868452D01*
X335699404Y-78820833D01*
X335747023Y-78725595D01*
X335747023Y-78630357D01*
X335699404Y-78535119D01*
X335651785Y-78487500D01*
X335556547Y-78439880D01*
X335318452Y-78439880D01*
X335175595Y-78487500D01*
X334842261Y-78439880D02*
X334604166Y-79439880D01*
X334413690Y-78725595D01*
X334223214Y-79439880D01*
X333985119Y-78439880D01*
X333175595Y-78439880D02*
X333366071Y-78439880D01*
X333461309Y-78487500D01*
X333508928Y-78535119D01*
X333604166Y-78677976D01*
X333651785Y-78868452D01*
X333651785Y-79249404D01*
X333604166Y-79344642D01*
X333556547Y-79392261D01*
X333461309Y-79439880D01*
X333270833Y-79439880D01*
X333175595Y-79392261D01*
X333127976Y-79344642D01*
X333080357Y-79249404D01*
X333080357Y-79011309D01*
X333127976Y-78916071D01*
X333175595Y-78868452D01*
X333270833Y-78820833D01*
X333461309Y-78820833D01*
X333556547Y-78868452D01*
X333604166Y-78916071D01*
X333651785Y-79011309D01*
X332747023Y-78439880D02*
X332080357Y-78439880D01*
X332508928Y-79439880D01*
X335747023Y-98892261D02*
X335604166Y-98939880D01*
X335366071Y-98939880D01*
X335270833Y-98892261D01*
X335223214Y-98844642D01*
X335175595Y-98749404D01*
X335175595Y-98654166D01*
X335223214Y-98558928D01*
X335270833Y-98511309D01*
X335366071Y-98463690D01*
X335556547Y-98416071D01*
X335651785Y-98368452D01*
X335699404Y-98320833D01*
X335747023Y-98225595D01*
X335747023Y-98130357D01*
X335699404Y-98035119D01*
X335651785Y-97987500D01*
X335556547Y-97939880D01*
X335318452Y-97939880D01*
X335175595Y-97987500D01*
X334842261Y-97939880D02*
X334604166Y-98939880D01*
X334413690Y-98225595D01*
X334223214Y-98939880D01*
X333985119Y-97939880D01*
X333175595Y-97939880D02*
X333366071Y-97939880D01*
X333461309Y-97987500D01*
X333508928Y-98035119D01*
X333604166Y-98177976D01*
X333651785Y-98368452D01*
X333651785Y-98749404D01*
X333604166Y-98844642D01*
X333556547Y-98892261D01*
X333461309Y-98939880D01*
X333270833Y-98939880D01*
X333175595Y-98892261D01*
X333127976Y-98844642D01*
X333080357Y-98749404D01*
X333080357Y-98511309D01*
X333127976Y-98416071D01*
X333175595Y-98368452D01*
X333270833Y-98320833D01*
X333461309Y-98320833D01*
X333556547Y-98368452D01*
X333604166Y-98416071D01*
X333651785Y-98511309D01*
X332508928Y-98368452D02*
X332604166Y-98320833D01*
X332651785Y-98273214D01*
X332699404Y-98177976D01*
X332699404Y-98130357D01*
X332651785Y-98035119D01*
X332604166Y-97987500D01*
X332508928Y-97939880D01*
X332318452Y-97939880D01*
X332223214Y-97987500D01*
X332175595Y-98035119D01*
X332127976Y-98130357D01*
X332127976Y-98177976D01*
X332175595Y-98273214D01*
X332223214Y-98320833D01*
X332318452Y-98368452D01*
X332508928Y-98368452D01*
X332604166Y-98416071D01*
X332651785Y-98463690D01*
X332699404Y-98558928D01*
X332699404Y-98749404D01*
X332651785Y-98844642D01*
X332604166Y-98892261D01*
X332508928Y-98939880D01*
X332318452Y-98939880D01*
X332223214Y-98892261D01*
X332175595Y-98844642D01*
X332127976Y-98749404D01*
X332127976Y-98558928D01*
X332175595Y-98463690D01*
X332223214Y-98416071D01*
X332318452Y-98368452D01*
X335747023Y-118392261D02*
X335604166Y-118439880D01*
X335366071Y-118439880D01*
X335270833Y-118392261D01*
X335223214Y-118344642D01*
X335175595Y-118249404D01*
X335175595Y-118154166D01*
X335223214Y-118058928D01*
X335270833Y-118011309D01*
X335366071Y-117963690D01*
X335556547Y-117916071D01*
X335651785Y-117868452D01*
X335699404Y-117820833D01*
X335747023Y-117725595D01*
X335747023Y-117630357D01*
X335699404Y-117535119D01*
X335651785Y-117487500D01*
X335556547Y-117439880D01*
X335318452Y-117439880D01*
X335175595Y-117487500D01*
X334842261Y-117439880D02*
X334604166Y-118439880D01*
X334413690Y-117725595D01*
X334223214Y-118439880D01*
X333985119Y-117439880D01*
X333175595Y-117439880D02*
X333366071Y-117439880D01*
X333461309Y-117487500D01*
X333508928Y-117535119D01*
X333604166Y-117677976D01*
X333651785Y-117868452D01*
X333651785Y-118249404D01*
X333604166Y-118344642D01*
X333556547Y-118392261D01*
X333461309Y-118439880D01*
X333270833Y-118439880D01*
X333175595Y-118392261D01*
X333127976Y-118344642D01*
X333080357Y-118249404D01*
X333080357Y-118011309D01*
X333127976Y-117916071D01*
X333175595Y-117868452D01*
X333270833Y-117820833D01*
X333461309Y-117820833D01*
X333556547Y-117868452D01*
X333604166Y-117916071D01*
X333651785Y-118011309D01*
X332604166Y-118439880D02*
X332413690Y-118439880D01*
X332318452Y-118392261D01*
X332270833Y-118344642D01*
X332175595Y-118201785D01*
X332127976Y-118011309D01*
X332127976Y-117630357D01*
X332175595Y-117535119D01*
X332223214Y-117487500D01*
X332318452Y-117439880D01*
X332508928Y-117439880D01*
X332604166Y-117487500D01*
X332651785Y-117535119D01*
X332699404Y-117630357D01*
X332699404Y-117868452D01*
X332651785Y-117963690D01*
X332604166Y-118011309D01*
X332508928Y-118058928D01*
X332318452Y-118058928D01*
X332223214Y-118011309D01*
X332175595Y-117963690D01*
X332127976Y-117868452D01*
X335747023Y-137892261D02*
X335604166Y-137939880D01*
X335366071Y-137939880D01*
X335270833Y-137892261D01*
X335223214Y-137844642D01*
X335175595Y-137749404D01*
X335175595Y-137654166D01*
X335223214Y-137558928D01*
X335270833Y-137511309D01*
X335366071Y-137463690D01*
X335556547Y-137416071D01*
X335651785Y-137368452D01*
X335699404Y-137320833D01*
X335747023Y-137225595D01*
X335747023Y-137130357D01*
X335699404Y-137035119D01*
X335651785Y-136987500D01*
X335556547Y-136939880D01*
X335318452Y-136939880D01*
X335175595Y-136987500D01*
X334842261Y-136939880D02*
X334604166Y-137939880D01*
X334413690Y-137225595D01*
X334223214Y-137939880D01*
X333985119Y-136939880D01*
X333699404Y-136939880D02*
X333032738Y-136939880D01*
X333461309Y-137939880D01*
X332461309Y-136939880D02*
X332366071Y-136939880D01*
X332270833Y-136987500D01*
X332223214Y-137035119D01*
X332175595Y-137130357D01*
X332127976Y-137320833D01*
X332127976Y-137558928D01*
X332175595Y-137749404D01*
X332223214Y-137844642D01*
X332270833Y-137892261D01*
X332366071Y-137939880D01*
X332461309Y-137939880D01*
X332556547Y-137892261D01*
X332604166Y-137844642D01*
X332651785Y-137749404D01*
X332699404Y-137558928D01*
X332699404Y-137320833D01*
X332651785Y-137130357D01*
X332604166Y-137035119D01*
X332556547Y-136987500D01*
X332461309Y-136939880D01*
M02*
