M48
;DRILL file {KiCad (5.0.1-3-g963ef8bb5)} date Friday, December 14, 2018 at 10:53:38 AM
;FORMAT={3:3/ absolute / metric / suppress leading zeros}
FMAT,2
METRIC,TZ
T1C0.400
T2C0.800
T3C0.900
T4C1.000
T5C1.100
T6C1.270
T7C1.778
T8C2.300
T9C0.991
T10C1.702
T11C3.429
%
G90
G05
M71
T1
X21950Y-54150
X24750Y-87750
X25000Y-69000
X30500Y-55250
X31500Y-71750
X33000Y-55250
X35250Y-75500
X41400Y-73800
X41450Y-113213
X41550Y-93900
X41858Y-55025
X44250Y-63250
X44500Y-82750
X44500Y-106500
X45250Y-122000
X49500Y-56750
X57750Y-41750
X59010Y-91393
X60950Y-71750
X61000Y-110950
X61338Y-52525
X63250Y-46750
X63750Y-120000
X64000Y-60750
X64000Y-80500
X64500Y-100500
X71250Y-49500
X80150Y-88550
X80200Y-108250
X80400Y-69150
X81465Y-51025
X83000Y-78500
X83250Y-98000
X83500Y-44000
X83500Y-117750
X83750Y-58500
X87500Y-51750
X99800Y-110750
X99900Y-72150
X100050Y-91050
X102750Y-119750
X103000Y-61250
X103500Y-80250
X103500Y-100500
X103934Y-54525
X105250Y-73500
X117250Y-51250
X119350Y-95850
X119471Y-115682
X119636Y-59178
X119901Y-77000
X120191Y-57650
X120725Y-59271
X121500Y-36600
X121741Y-58044
X122250Y-71000
X122500Y-124500
X124864Y-60460
X126450Y-77745
X127500Y-77750
X128500Y-70250
X129767Y-70034
X134750Y-96000
X139000Y-118088
X140455Y-61265
X140606Y-57159
X141175Y-62740
X142000Y-47500
X142000Y-55000
X142250Y-50750
X142250Y-126250
X142286Y-60146
X142740Y-58202
X143225Y-62275
X143258Y-59749
X144000Y-63975
X144000Y-66750
X144099Y-56497
X144433Y-57974
X144475Y-52298
X144525Y-73500
X144540Y-72290
X145975Y-57490
X146250Y-65250
X146250Y-80000
X146750Y-77250
X146775Y-72291
X146775Y-73500
X147055Y-62370
X148000Y-65275
X148025Y-56484
X148079Y-59138
X148800Y-52462
X148976Y-57777
X149031Y-62275
X149455Y-51642
X149601Y-63157
X149622Y-59616
X149676Y-61419
X151000Y-60500
X151000Y-57000
X151500Y-59000
X152014Y-56726
X152750Y-94750
X154000Y-81500
X154000Y-91750
X158500Y-76750
X158550Y-120050
X159000Y-65000
X159000Y-69750
X159250Y-58000
X159250Y-73500
X160750Y-101000
X162250Y-129250
X162750Y-41250
X164000Y-83250
X164250Y-84750
X164500Y-82250
X166215Y-77905
X166748Y-54475
X166794Y-81326
X167234Y-83348
X167234Y-83348
X167289Y-80400
X167500Y-77850
X167750Y-44250
X167750Y-46000
X168113Y-66254
X168548Y-53798
X168587Y-79324
X168774Y-83844
X169025Y-81365
X169485Y-86389
X171500Y-103250
X171813Y-66990
X172500Y-97250
X173104Y-66027
X173250Y-75250
X173500Y-67000
X173500Y-82750
X173750Y-62250
X174250Y-85000
X174975Y-49964
X175000Y-44750
X175000Y-73000
X175250Y-55750
X175250Y-59250
X175250Y-89750
X176000Y-45525
X176250Y-96000
X176500Y-68500
X177258Y-47242
X177574Y-44413
X177850Y-122963
X178000Y-46500
X178750Y-45725
X179127Y-122936
X179250Y-63250
X180150Y-120650
X180500Y-59500
X180500Y-132000
X180750Y-44500
X181452Y-81298
X181635Y-52979
X182250Y-50500
X182250Y-64750
X182500Y-67000
X182584Y-49030
X182750Y-88750
X183000Y-78250
X183685Y-52719
X183826Y-50031
X184034Y-76079
X184034Y-76079
X184105Y-51593
X186648Y-81423
X186981Y-37496
X187500Y-41000
X187703Y-75837
X188000Y-37750
X188000Y-120500
X188059Y-73287
X188486Y-35789
X189275Y-73000
X189316Y-75698
X189950Y-57050
X190250Y-39000
X190320Y-67508
X190500Y-62250
X191250Y-59750
X191347Y-68725
X192500Y-69500
X192750Y-38500
X194000Y-38500
X195250Y-55000
X195500Y-38500
X196577Y-38327
X197100Y-120350
X197250Y-65500
X198000Y-38500
X199000Y-81750
X199250Y-38500
X199250Y-101500
X200000Y-110250
X200500Y-86250
X200750Y-91000
X200750Y-91250
X200750Y-95250
X201000Y-88500
X201000Y-129500
X209250Y-46750
X216000Y-65500
X216850Y-117750
X220250Y-127250
X220500Y-69750
X222750Y-79500
X228850Y-35400
X234000Y-90500
X235087Y-98525
X235413Y-76678
X236600Y-115700
X236750Y-57400
X238250Y-51250
X239250Y-105000
X239500Y-124750
X242000Y-77750
X242750Y-58500
X254478Y-93025
X255698Y-72075
X255750Y-110350
X255800Y-52050
X258750Y-101000
X259250Y-81000
X264250Y-52500
X265750Y-70000
X265750Y-108750
X274394Y-91275
X274948Y-69338
X275400Y-49500
X275417Y-108003
X278500Y-78250
X279250Y-97750
X282250Y-51500
X284750Y-110000
X290250Y-112500
X293446Y-92519
X294356Y-71925
X294850Y-110650
X294900Y-52050
X297750Y-99750
X298750Y-61250
X302000Y-92750
X313193Y-77560
X313304Y-97013
X314400Y-57050
X314500Y-115750
X318000Y-66000
X318250Y-85750
T2
X285188Y-58500
X285188Y-66120
X246188Y-58500
X246188Y-66120
X109688Y-82568
X109688Y-90188
X90188Y-58193
X90188Y-65813
X324188Y-124005
X324188Y-131625
X304688Y-119438
X304688Y-127057
X168188Y-109380
X168188Y-117000
X16755Y-119438
X24375Y-119438
X265688Y-114563
X265688Y-122182
X226688Y-121568
X226688Y-129188
X304688Y-82875
X304688Y-90495
X285188Y-97500
X285188Y-105120
X265688Y-56063
X265688Y-63682
X148688Y-106943
X148688Y-114563
X51188Y-119130
X51188Y-126750
X17063Y-80438
X24683Y-80438
X90188Y-97193
X90188Y-104813
X109688Y-43875
X109688Y-51495
X207188Y-124313
X207188Y-131933
X31688Y-121568
X31688Y-129188
X51188Y-99630
X51188Y-107250
X246188Y-116693
X246188Y-124313
X129188Y-104505
X129188Y-112125
X70688Y-39000
X70688Y-46620
X226688Y-102375
X226688Y-109995
X70688Y-95063
X70688Y-102682
X187688Y-126750
X187688Y-134370
X304688Y-43568
X304688Y-51188
X31688Y-92625
X31688Y-100245
X51188Y-60938
X51188Y-68557
X265688Y-94755
X265688Y-102375
X17063Y-60938
X24683Y-60938
X246188Y-78000
X246188Y-85620
X109688Y-102375
X109688Y-109995
X90188Y-78000
X90188Y-85620
X226688Y-63375
X226688Y-70995
X168188Y-129188
X168188Y-136808
X31688Y-46005
X31688Y-53625
X324188Y-46005
X324188Y-53625
X285188Y-39000
X285188Y-46620
X70688Y-75255
X70688Y-82875
X246188Y-41130
X246188Y-48750
X90188Y-39000
X90188Y-46620
X324188Y-104813
X324188Y-112432
X304688Y-102068
X304688Y-109688
X285188Y-117000
X285188Y-124620
X148688Y-126750
X148688Y-134370
X17063Y-99938
X24683Y-99938
X109688Y-63375
X109688Y-70995
X324188Y-85005
X324188Y-92625
X226688Y-51188
X226688Y-58807
X304688Y-63068
X304688Y-70688
X285188Y-78000
X285188Y-85620
X265688Y-39000
X265688Y-46620
X129188Y-124005
X129188Y-131625
X70688Y-55755
X70688Y-63375
X70688Y-114255
X70688Y-121875
X90188Y-116693
X90188Y-124313
X207188Y-104813
X207188Y-112432
X31688Y-107250
X31688Y-114870
X51188Y-80130
X51188Y-87750
X246188Y-97500
X246188Y-105120
X109688Y-119438
X109688Y-127057
X324188Y-65505
X324188Y-73125
X226688Y-82875
X226688Y-90495
X187688Y-107250
X187688Y-114870
X31688Y-75255
X31688Y-82875
X51188Y-41438
X51188Y-49058
X265688Y-75563
X265688Y-83183
X31688Y-60938
X31688Y-68557
T3
X156350Y-51260
X158850Y-51250
X161350Y-51275
X163850Y-51260
X235110Y-35450
X237650Y-35450
T4
X177850Y-100500
X136600Y-40815
X136600Y-43355
X136600Y-45895
X136600Y-48435
X136600Y-50975
X136600Y-53515
X136600Y-56055
X136600Y-58595
X136600Y-61135
X136600Y-63675
X136600Y-66215
X136600Y-68755
X136600Y-71295
X136600Y-73835
X136600Y-76375
X136600Y-78915
X136600Y-81455
X136600Y-83995
X136600Y-86535
X136600Y-89075
X139140Y-40815
X139140Y-43355
X139140Y-45895
X139140Y-48435
X139140Y-50975
X139140Y-53515
X139140Y-56055
X139140Y-58595
X139140Y-61135
X139140Y-63675
X139140Y-66215
X139140Y-68755
X139140Y-71295
X139140Y-73835
X139140Y-76375
X139140Y-78915
X139140Y-81455
X139140Y-83995
X139140Y-86535
X139140Y-89075
X191670Y-33500
X191670Y-36040
X194210Y-33500
X194210Y-36040
X196750Y-33500
X196750Y-36040
X199290Y-33500
X199290Y-36040
X201830Y-33500
X201830Y-36040
X131500Y-40815
X131500Y-43355
X131500Y-45895
X131500Y-48435
X131500Y-50975
X131500Y-53515
X131500Y-56055
X131500Y-58595
X131500Y-61135
X131500Y-63675
X131500Y-66215
X131500Y-68755
X131500Y-71295
X131500Y-73835
X131500Y-76375
X131500Y-78915
X131500Y-81455
X131500Y-83995
X131500Y-86535
X131500Y-89075
X134040Y-40815
X134040Y-43355
X134040Y-45895
X134040Y-48435
X134040Y-50975
X134040Y-53515
X134040Y-56055
X134040Y-58595
X134040Y-61135
X134040Y-63675
X134040Y-66215
X134040Y-68755
X134040Y-71295
X134040Y-73835
X134040Y-76375
X134040Y-78915
X134040Y-81455
X134040Y-83995
X134040Y-86535
X134040Y-89075
X192960Y-71850
X195500Y-71850
X198040Y-71850
X200580Y-71850
X203120Y-71850
T5
X170380Y-34190
X170380Y-36730
X170380Y-39270
X170380Y-41810
X170380Y-44350
X170380Y-46890
X170380Y-49430
X170380Y-51970
X170380Y-54510
X170380Y-57050
X170380Y-59590
X170380Y-62130
X170380Y-64670
X170380Y-67210
X170380Y-69750
X170380Y-72290
X170380Y-74830
X170380Y-77370
X170380Y-79910
X170380Y-82450
X170380Y-84990
X170380Y-87530
X170380Y-90070
X170380Y-92610
X172920Y-79910
X173380Y-40540
X173380Y-43080
X173380Y-45620
X173380Y-48160
X173380Y-50700
X175460Y-79910
X178000Y-49430
X178000Y-51970
X178000Y-54510
X178000Y-57050
X178000Y-72290
X178000Y-74830
X178000Y-77370
X178000Y-79910
X178000Y-82450
X178000Y-84990
X178000Y-87530
X178000Y-90070
X178000Y-92610
X180540Y-49430
X180540Y-51970
X180540Y-54510
X180540Y-57050
X180540Y-72290
X180540Y-74830
X180540Y-77370
X180540Y-79910
X180540Y-82450
X180540Y-84990
X180540Y-87530
X180540Y-90070
X180540Y-92610
X183080Y-36730
X183080Y-41810
X183080Y-44350
X183080Y-46890
X183080Y-79910
X185620Y-34190
X185620Y-36730
X185620Y-39270
X185620Y-41810
X185620Y-44350
X185620Y-46890
X185620Y-49430
X185620Y-51970
X185620Y-54510
X185620Y-57050
X185620Y-59590
X185620Y-62130
X185620Y-64670
X185620Y-67210
X185620Y-69750
X185620Y-72290
X185620Y-74830
X185620Y-77370
X185620Y-79910
X185620Y-82450
X185620Y-84990
X185620Y-87530
X185620Y-90070
X185620Y-92610
T6
X36438Y-108613
X37637Y-99813
X37637Y-109813
X46438Y-108613
X55938Y-106175
X57138Y-97375
X57138Y-107375
X65938Y-106175
X231438Y-91550
X232638Y-82750
X232638Y-92750
X241438Y-91550
X36438Y-50113
X37637Y-41313
X37637Y-51313
X46438Y-50113
X114438Y-111050
X115638Y-102250
X115638Y-112250
X124438Y-111050
X231438Y-111050
X232638Y-102250
X232638Y-112250
X241438Y-111050
X250938Y-86675
X252138Y-77875
X252138Y-87875
X260938Y-86675
X16938Y-113488
X18138Y-104688
X18138Y-114688
X26938Y-113488
X75438Y-103738
X76638Y-94938
X76638Y-104938
X85438Y-103738
X114438Y-72050
X115638Y-63250
X115638Y-73250
X124438Y-72050
X94938Y-125675
X96137Y-116875
X96137Y-126875
X104938Y-125675
X309438Y-72050
X310638Y-63250
X310638Y-73250
X319438Y-72050
X192438Y-135425
X193638Y-126625
X193638Y-136625
X202438Y-135425
X309438Y-111050
X310638Y-102250
X310638Y-112250
X319438Y-111050
X55938Y-86675
X57138Y-77875
X57138Y-87875
X65938Y-86675
X250938Y-106175
X252138Y-97375
X252138Y-107375
X260938Y-106175
X328938Y-93988
X330138Y-85188
X330138Y-95188
X338938Y-93988
X289938Y-106175
X291138Y-97375
X291138Y-107375
X299938Y-106175
X16938Y-132987
X18138Y-124188
X18138Y-134188
X26938Y-132987
X114438Y-91550
X115638Y-82750
X115638Y-92750
X124438Y-91550
X55938Y-47675
X57138Y-38875
X57138Y-48875
X65938Y-47675
X328938Y-54988
X330138Y-46188
X330138Y-56188
X338938Y-54988
X289938Y-67175
X291138Y-58375
X291138Y-68375
X299938Y-67175
X94938Y-86675
X96137Y-77875
X96137Y-87875
X104938Y-86675
X16938Y-93988
X18138Y-85188
X18138Y-95188
X26938Y-93988
X114438Y-52550
X115638Y-43750
X115638Y-53750
X124438Y-52550
X75438Y-45238
X76638Y-36438
X76638Y-46438
X85438Y-45238
X94938Y-47675
X96137Y-38875
X96137Y-48875
X104938Y-47675
X270438Y-45238
X271638Y-36438
X271638Y-46438
X280438Y-45238
X192438Y-115925
X193638Y-107125
X193638Y-117125
X202438Y-115925
X94938Y-106175
X96137Y-97375
X96137Y-107375
X104938Y-106175
X55938Y-67175
X57138Y-58375
X57138Y-68375
X65938Y-67175
X328938Y-74488
X330138Y-65688
X330138Y-75688
X338938Y-74488
X231438Y-130550
X232638Y-121750
X232638Y-131750
X241438Y-130550
X172938Y-137862
X174138Y-129063
X174138Y-139063
X182938Y-137862
X289938Y-86675
X291138Y-77875
X291138Y-87875
X299938Y-86675
X250938Y-67175
X252138Y-58375
X252138Y-68375
X260938Y-67175
X36438Y-128112
X37637Y-119313
X37637Y-129313
X46438Y-128112
X270438Y-64738
X271638Y-55938
X271638Y-65938
X280438Y-64738
X309438Y-130550
X310638Y-121750
X310638Y-131750
X319438Y-130550
X153438Y-135425
X154638Y-126625
X154638Y-136625
X163438Y-135425
X289938Y-47675
X291138Y-38875
X291138Y-48875
X299938Y-47675
X211938Y-132987
X213138Y-124188
X213138Y-134188
X221938Y-132987
X36438Y-69613
X37637Y-60813
X37637Y-70813
X46438Y-69613
X55938Y-125675
X57138Y-116875
X57138Y-126875
X65938Y-125675
X16938Y-54988
X18138Y-46188
X18138Y-56188
X26938Y-54988
X309438Y-52550
X310638Y-43750
X310638Y-53750
X319438Y-52550
X75438Y-123238
X76638Y-114438
X76638Y-124438
X85438Y-123238
X172938Y-118363
X174138Y-109563
X174138Y-119563
X182938Y-118363
X75438Y-84238
X76638Y-75438
X76638Y-85438
X85438Y-84238
X250938Y-47675
X252138Y-38875
X252138Y-48875
X260938Y-47675
X36438Y-89113
X37637Y-80313
X37637Y-90313
X46438Y-89113
X153438Y-115925
X154638Y-107125
X154638Y-117125
X163438Y-115925
X270438Y-123238
X271638Y-114438
X271638Y-124438
X280438Y-123238
X211938Y-113488
X213138Y-104688
X213138Y-114688
X221938Y-113488
X328938Y-113488
X330138Y-104688
X330138Y-114688
X338938Y-113488
X133938Y-113488
X135138Y-104688
X135138Y-114688
X143938Y-113488
X16938Y-74488
X18138Y-65688
X18138Y-75688
X26938Y-74488
X231438Y-72050
X232638Y-63250
X232638Y-73250
X241438Y-72050
X289938Y-125675
X291138Y-116875
X291138Y-126875
X299938Y-125675
X309438Y-91550
X310638Y-82750
X310638Y-92750
X319438Y-91550
X270438Y-103738
X271638Y-94938
X271638Y-104938
X280438Y-103738
X94938Y-67175
X96137Y-58375
X96137Y-68375
X104938Y-67175
X328938Y-132987
X330138Y-124188
X330138Y-134188
X338938Y-132987
X250938Y-125675
X252138Y-116875
X252138Y-126875
X260938Y-125675
X75438Y-64738
X76638Y-55938
X76638Y-65938
X85438Y-64738
X133938Y-132987
X135138Y-124188
X135138Y-134188
X143938Y-132987
X114438Y-130550
X115638Y-121750
X115638Y-131750
X124438Y-130550
X231438Y-52550
X232638Y-43750
X232638Y-53750
X241438Y-52550
X270438Y-84238
X271638Y-75438
X271638Y-85438
X280438Y-84238
T7
X94438Y-121875
X99938Y-127375
X308938Y-68250
X314438Y-73750
X191938Y-131625
X197438Y-137125
X308938Y-107250
X314438Y-112750
X55438Y-82875
X60938Y-88375
X250438Y-102375
X255938Y-107875
X328438Y-90188
X333938Y-95688
X289438Y-102375
X294938Y-107875
X16438Y-129188
X21938Y-134688
X113938Y-87750
X119438Y-93250
X55438Y-43875
X60938Y-49375
X328438Y-51188
X333938Y-56688
X289438Y-63375
X294938Y-68875
X94438Y-82875
X99938Y-88375
X16438Y-90188
X21938Y-95688
X113938Y-48750
X119438Y-54250
X74938Y-41438
X80438Y-46938
X94438Y-43875
X99938Y-49375
X269938Y-41438
X275438Y-46938
X191938Y-112125
X197438Y-117625
X94438Y-102375
X99938Y-107875
X55438Y-63375
X60938Y-68875
X328438Y-70688
X333938Y-76188
X230938Y-126750
X236438Y-132250
X172438Y-134063
X177938Y-139563
X289438Y-82875
X294938Y-88375
X250438Y-63375
X255938Y-68875
X35938Y-124313
X41438Y-129813
X269938Y-60938
X275438Y-66438
X308938Y-126750
X314438Y-132250
X152938Y-131625
X158438Y-137125
X289438Y-43875
X294938Y-49375
X211438Y-129188
X216938Y-134688
X35938Y-65813
X41438Y-71313
X55438Y-121875
X60938Y-127375
X16438Y-51188
X21938Y-56688
X308938Y-48750
X314438Y-54250
X74938Y-119438
X80438Y-124938
X172438Y-114563
X177938Y-120063
X74938Y-80438
X80438Y-85938
X250438Y-43875
X255938Y-49375
X35938Y-85313
X41438Y-90813
X152938Y-112125
X158438Y-117625
X269938Y-119438
X275438Y-124938
X211438Y-109688
X216938Y-115188
X328438Y-109688
X333938Y-115188
X133438Y-109688
X138938Y-115188
X16438Y-70688
X21938Y-76188
X230938Y-68250
X236438Y-73750
X289438Y-121875
X294938Y-127375
X308938Y-87750
X314438Y-93250
X269938Y-99938
X275438Y-105438
X94438Y-63375
X99938Y-68875
X328438Y-129188
X333938Y-134688
X250438Y-121875
X255938Y-127375
X74938Y-60938
X80438Y-66438
X133438Y-129188
X138938Y-134688
X113938Y-126750
X119438Y-132250
X230938Y-48750
X236438Y-54250
X269938Y-80438
X275438Y-85938
X35938Y-104813
X41438Y-110313
X55438Y-102375
X60938Y-107875
X230938Y-87750
X236438Y-93250
X35938Y-46313
X41438Y-51813
X113938Y-107250
X119438Y-112750
X230938Y-107250
X236438Y-112750
X250438Y-82875
X255938Y-88375
X16438Y-109688
X21938Y-115188
X74938Y-99938
X80438Y-105438
X113938Y-68250
X119438Y-73750
T8
X153530Y-48550
X166670Y-48550
T9
X143138Y-123968
X144158Y-124988
X123638Y-121530
X124658Y-122550
X240638Y-43530
X241658Y-44550
X279638Y-75218
X280658Y-76238
X45637Y-99593
X46658Y-100613
X65138Y-97155
X66158Y-98175
X240638Y-82530
X241658Y-83550
X45637Y-41093
X46658Y-42113
X123638Y-102030
X124658Y-103050
X240638Y-102030
X241658Y-103050
X260138Y-77655
X261158Y-78675
X26138Y-104468
X27158Y-105488
X84638Y-94718
X85658Y-95738
X123638Y-63030
X124658Y-64050
X104138Y-116655
X105158Y-117675
X318638Y-63030
X319658Y-64050
X201638Y-126405
X202658Y-127425
X318638Y-102030
X319658Y-103050
X65138Y-77655
X66158Y-78675
X260138Y-97155
X261158Y-98175
X338138Y-84968
X339158Y-85988
X299138Y-97155
X300158Y-98175
X26138Y-123968
X27158Y-124988
X123638Y-82530
X124658Y-83550
X65138Y-38655
X66158Y-39675
X338138Y-45968
X339158Y-46988
X299138Y-58155
X300158Y-59175
X104138Y-77655
X105158Y-78675
X26138Y-84968
X27158Y-85988
X123638Y-43530
X124658Y-44550
X84638Y-36218
X85658Y-37238
X104138Y-38655
X105158Y-39675
X279638Y-36218
X280658Y-37238
X201638Y-106905
X202658Y-107925
X104138Y-97155
X105158Y-98175
X65138Y-58155
X66158Y-59175
X338138Y-65468
X339158Y-66488
X240638Y-121530
X241658Y-122550
X182138Y-128843
X183158Y-129862
X299138Y-77655
X300158Y-78675
X260138Y-58155
X261158Y-59175
X45637Y-119093
X46658Y-120113
X279638Y-55718
X280658Y-56738
X318638Y-121530
X319658Y-122550
X162638Y-126405
X163658Y-127425
X299138Y-38655
X300158Y-39675
X221138Y-123968
X222158Y-124988
X45637Y-60593
X46658Y-61613
X65138Y-116655
X66158Y-117675
X26138Y-45968
X27158Y-46988
X318638Y-43530
X319658Y-44550
X84638Y-114218
X85658Y-115238
X182138Y-109343
X183158Y-110363
X84638Y-75218
X85658Y-76238
X260138Y-38655
X261158Y-39675
X45637Y-80093
X46658Y-81113
X162638Y-106905
X163658Y-107925
X279638Y-114218
X280658Y-115238
X221138Y-104468
X222158Y-105488
X338138Y-104468
X339158Y-105488
X143138Y-104468
X144158Y-105488
X26138Y-65468
X27158Y-66488
X240638Y-63030
X241658Y-64050
X299138Y-116655
X300158Y-117675
X318638Y-82530
X319658Y-83550
X279638Y-94718
X280658Y-95738
X104138Y-58155
X105158Y-59175
X338138Y-123968
X339158Y-124988
X260138Y-116655
X261158Y-117675
X84638Y-55718
X85658Y-56738
T10
X80438Y-74938
X85938Y-80438
X255938Y-38375
X261438Y-43875
X41438Y-79813
X46938Y-85313
X158438Y-106625
X163938Y-112125
X275438Y-113938
X280938Y-119438
X216938Y-104188
X222438Y-109688
X333938Y-104188
X339438Y-109688
X138938Y-104188
X144438Y-109688
X21938Y-65188
X27438Y-70688
X236438Y-62750
X241938Y-68250
X294938Y-116375
X300438Y-121875
X314438Y-82250
X319938Y-87750
X275438Y-94438
X280938Y-99938
X99938Y-57875
X105438Y-63375
X333938Y-123688
X339438Y-129188
X255938Y-116375
X261438Y-121875
X80438Y-55438
X85938Y-60938
X138938Y-123688
X144438Y-129188
X119438Y-121250
X124938Y-126750
X236438Y-43250
X241938Y-48750
X275438Y-74938
X280938Y-80438
X41438Y-99313
X46938Y-104813
X60938Y-96875
X66438Y-102375
X236438Y-82250
X241938Y-87750
X41438Y-40813
X46938Y-46313
X119438Y-101750
X124938Y-107250
X236438Y-101750
X241938Y-107250
X255938Y-77375
X261438Y-82875
X21938Y-104188
X27438Y-109688
X80438Y-94438
X85938Y-99938
X119438Y-62750
X124938Y-68250
X99938Y-116375
X105438Y-121875
X314438Y-62750
X319938Y-68250
X197438Y-126125
X202938Y-131625
X314438Y-101750
X319938Y-107250
X60938Y-77375
X66438Y-82875
X255938Y-96875
X261438Y-102375
X333938Y-84688
X339438Y-90188
X294938Y-96875
X300438Y-102375
X21938Y-123688
X27438Y-129188
X119438Y-82250
X124938Y-87750
X60938Y-38375
X66438Y-43875
X333938Y-45688
X339438Y-51188
X294938Y-57875
X300438Y-63375
X99938Y-77375
X105438Y-82875
X21938Y-84688
X27438Y-90188
X119438Y-43250
X124938Y-48750
X80438Y-35938
X85938Y-41438
X99938Y-38375
X105438Y-43875
X275438Y-35938
X280938Y-41438
X197438Y-106625
X202938Y-112125
X99938Y-96875
X105438Y-102375
X60938Y-57875
X66438Y-63375
X333938Y-65188
X339438Y-70688
X236438Y-121250
X241938Y-126750
X177938Y-128563
X183438Y-134063
X294938Y-77375
X300438Y-82875
X255938Y-57875
X261438Y-63375
X41438Y-118813
X46938Y-124313
X275438Y-55438
X280938Y-60938
X314438Y-121250
X319938Y-126750
X158438Y-126125
X163938Y-131625
X294938Y-38375
X300438Y-43875
X216938Y-123688
X222438Y-129188
X41438Y-60313
X46938Y-65813
X60938Y-116375
X66438Y-121875
X21938Y-45688
X27438Y-51188
X314438Y-43250
X319938Y-48750
X80438Y-113938
X85938Y-119438
X177938Y-109063
X183438Y-114563
T11
X197438Y-131625
X314438Y-107250
X60938Y-82875
X255938Y-102375
X333938Y-90188
X294938Y-102375
X21938Y-129188
X119438Y-87750
X60938Y-43875
X333938Y-51188
X294938Y-63375
X99938Y-82875
X21938Y-90188
X119438Y-48750
X80438Y-41438
X99938Y-43875
X275438Y-41438
X197438Y-112125
X99938Y-102375
X60938Y-63375
X333938Y-70688
X236438Y-126750
X177938Y-134063
X294938Y-82875
X255938Y-63375
X41438Y-124313
X275438Y-60938
X314438Y-126750
X158438Y-131625
X294938Y-43875
X216938Y-129188
X41438Y-65813
X60938Y-121875
X21938Y-51188
X314438Y-48750
X80438Y-119438
X177938Y-114563
X80438Y-80438
X255938Y-43875
X41438Y-85313
X158438Y-112125
X275438Y-119438
X216938Y-109688
X333938Y-109688
X138938Y-109688
X21938Y-70688
X236438Y-68250
X294938Y-121875
X314438Y-87750
X275438Y-99938
X99938Y-63375
X333938Y-129188
X255938Y-121875
X80438Y-60938
X138938Y-129188
X119438Y-126750
X236438Y-48750
X275438Y-80438
X41438Y-104813
X60938Y-102375
X236438Y-87750
X41438Y-46313
X119438Y-107250
X236438Y-107250
X255938Y-82875
X21938Y-109688
X80438Y-99938
X119438Y-68250
X99938Y-121875
X314438Y-68250
T0
M30
